<svg width="486" height="373" fill="none" xmlns="http://www.w3.org/2000/svg"><path d="M252 91.811L254.859 168s5.003-2.177 20.012-5.805c11.436-4.353 11.436-4.353 19.298-5.805 0 0 1.43-36.28 2.144-38.457.715-2.177 7.148-5.079 21.442-5.079 15.01 0 20.728 2.902 20.728 5.805 0 2.902 1.429 29.024 1.429 29.024s33.593-5.079 67.185-7.256c34.307-2.177 72.903 0 72.903 0s-1.429-12.335-7.147-29.75c-6.433-19.591-11.436-29.75-11.436-29.75s-31.448-7.981-107.21-3.628C293.455 80.202 252 91.811 252 91.811z" fill="#fff" fill-opacity=".05"/><path d="M436.757 37.078c-12.116-16.63-24.233-28.922-24.233-28.922s-88.376-20.97-215.24 4.338C101.78 31.294 25.52 73.955 25.52 73.955s-7.128 14.461-14.967 42.661C4.138 140.477 2 160 2 160s27.083-15.184 80.537-36.876c86.239-35.43 121.162-42.661 121.162-42.661s2.138-36.877 2.85-39.046c.713-2.892 12.117-5.062 22.807-5.062 10.691 0 23.52 2.17 23.52 4.339 0 2.17.713 30.369.713 30.369s59.155-9.4 105.482-9.4C424.64 60.94 456 68.17 456 68.17s-7.127-13.738-19.243-31.092z" fill="#fff" fill-opacity=".05"/><path d="M.029 193.676s-.713 21.037 4.988 46.426C10.006 262.59 17.132 280 17.132 280s44.898-27.566 86.233-48.602c53.45-27.566 93.359-44.976 93.359-44.976L201 103s-41.335 11.607-110.463 44.25C22.834 178.443.029 193.676.029 193.676zM255 189.231L258 262s8.25-3.675 16.5-6.615c8.25-3.676 15.75-6.616 15.75-6.616L294 176s-7.5 2.205-21 6.615c-8.25 2.941-11.25 3.676-18 6.616zm87-23.709s29.793-8.125 63.133-11.08c49.655-4.432 77.32-1.477 77.32-1.477S486 169.954 486 186.943c0 14.034-1.419 24.375-1.419 24.375s-18.443.739-36.886 2.954c-14.897 1.478-34.05 4.432-34.05 4.432s-1.418-26.591-1.418-29.546c0-2.215-6.385-4.431-18.444-4.431-10.64 0-17.734 2.216-17.734 3.693 0 2.216 0-1.477-1.418 35.455 0 0-7.094 2.216-13.478 3.693-6.385 1.477-15.606 4.432-15.606 4.432L342 165.522zM195 214l-4.286 80.945c-19.285 12.287-20 13.01-50 32.523C110 347.705 78.571 373 78.571 373S70 366.495 51.43 343.368C37.857 326.745 30 310.845 30 310.845s38.571-28.186 87.143-56.372C165 227.732 195 214 195 214zm66 73.504L263.8 368l21.7-14.504L289 273s-2.8.725-15.4 7.252c-8.4 5.076-12.6 7.252-12.6 7.252zm152-52.977L414.429 290s22.857-10.086 32.857-14.409c11.428-4.322 22.857-9.365 22.857-9.365l7.143-18.731C482.286 231.645 483 223 483 223s-13.571.72-35.714 4.323c-16.429 2.881-34.286 7.204-34.286 7.204z" fill="#fff" fill-opacity=".05"/></svg>