<svg width="74" height="53" fill="none" xmlns="http://www.w3.org/2000/svg"><path d="M46.14 42.274c-.509 0-.891.19-1.21.57-.318.379-.446.885-.446 1.58 0 .696.128 1.201.446 1.58.319.38.701.57 1.21.57.51 0 .893-.19 1.211-.57.319-.379.446-.884.446-1.58 0-.695-.127-1.201-.446-1.58-.254-.38-.7-.57-1.21-.57z" fill="#343434"/><path d="M68.185 39.114c-2.421 0-4.524 1.707-4.97 3.983H54.55c-.573-4.236-4.205-7.46-8.6-7.46-2.23 0-4.27.821-5.862 2.275l-4.396-4.362c1.274-1.897 2.038-4.11 2.038-6.575 0-3.984-2.038-7.524-5.096-9.674l2.994-7.144c2.357.506 4.778-.759 5.734-3.035 1.083-2.592-.127-5.563-2.803-6.638-2.549-1.138-5.543.126-6.626 2.718-.892 2.15-.192 4.616 1.593 6.007l-2.931 6.954c-1.466-.632-3.058-.948-4.715-.948-1.593 0-3.186.316-4.587.885l-2.867-6.955c1.784-1.39 2.548-3.793 1.593-6.006C18.934.547 15.94-.654 13.328.357c-2.612 1.012-3.823 4.047-2.804 6.639.956 2.276 3.377 3.54 5.734 3.035l2.931 7.08c-3.185 2.087-5.224 5.69-5.224 9.737 0 1.265.191 2.466.573 3.604l-5.415 2.213c-.51-.696-1.274-1.328-2.166-1.644-2.485-1.012-5.48.19-6.563 2.782-1.083 2.592.128 5.563 2.804 6.638 2.612 1.075 5.606-.126 6.69-2.782.382-.948.509-1.96.318-2.908l5.415-2.213c2.04 3.604 5.926 6.07 10.322 6.07 3.25 0 6.18-1.328 8.346-3.414l4.396 4.362a8.707 8.707 0 0 0-1.338 4.615c0 4.742 3.887 8.599 8.665 8.599 4.396 0 7.964-3.225 8.601-7.397h8.665c.51 2.213 2.548 3.92 4.97 3.92 2.803 0 5.096-2.276 5.096-5.058-.063-2.846-2.357-5.121-5.16-5.121zM35.437 3.392h.7v1.265h1.339V3.392h.7v3.35h-.7V5.29h-1.338v1.517h-.701V3.392zM16.706 6.87h-.701V5.352h-1.338v1.517h-.637V3.52h.7v1.264h1.338V3.519h.701v3.35h-.063zM6.511 37.47H5.81v-1.517H4.473v1.518h-.701V34.12h.7v1.264h1.339V34.12h.7v3.35zm18.03-8.535c.319.38.765.633 1.274.633.51 0 .956-.19 1.21-.506.128-.19.256-.443.383-.822h1.53c-.128.822-.447 1.454-1.02 1.96-.51.506-1.21.759-2.103.759-1.02 0-1.847-.316-2.484-1.012-.574-.695-.892-1.58-.892-2.782 0-1.264.318-2.276 1.019-2.908.573-.57 1.338-.885 2.23-.885 1.21 0 2.102.38 2.676 1.201.318.443.51.885.51 1.328h-1.466c-.127-.38-.191-.633-.382-.759-.255-.316-.701-.442-1.21-.442-.574 0-.956.252-1.275.695-.319.443-.446 1.075-.446 1.897a2.386 2.386 0 0 0 .446 1.643zm23.637 18.02c-.446.505-1.147.695-2.039.695-.892 0-1.529-.253-2.038-.696-.637-.569-.956-1.454-.956-2.529 0-1.138.319-1.96.956-2.529.51-.506 1.147-.758 2.038-.758.892 0 1.53.252 2.04.695.636.57.955 1.391.955 2.53 0 1.137-.319 1.959-.956 2.591zm21.28-1.076h-.7v-1.517H67.42v1.517h-.7v-3.35h.7v1.264h1.338v-1.264h.701v3.35z" fill="#343434"/></svg>