<svg width="26" height="47" fill="none" xmlns="http://www.w3.org/2000/svg"><path d="M13.086 29.49c.876 0 1.605-.533 1.897-1.308 0 0 0-.048.05-.048.291-.92-.147-1.937-.78-2.664-.875-1.017-.68-2.663-.68-2.663-4.087 3.583-2.044 5.86-2.044 5.86.292.483.925.822 1.557.822zm6.034 15.785H6.372a.767.767 0 0 0-.778.775c0 .435.34.774.778.774H19.12a.767.767 0 0 0 .779-.774c0-.436-.39-.775-.779-.775z" fill="#343434"/><path d="M24.324 24.695v-9.297c0-3.777-2.043-6.295-5.4-6.876V1.501h1.946a.767.767 0 0 0 .779-.775c0-.435-.39-.726-.779-.726H4.622a.767.767 0 0 0-.779.775c0 .436.34.775.779.775h1.946v7.02c-3.163.532-5.109 2.905-5.4 6.779v9.345C.486 24.89 0 25.47 0 26.196a1.46 1.46 0 0 0 1.168 1.453v9.345c.389 4.504 2.87 6.973 7.054 6.973h9c4.378 0 7.054-2.712 7.054-7.021v-9.297a1.501 1.501 0 0 0 1.167-1.453c.049-.726-.486-1.307-1.119-1.5zM8.076 8.377V1.5h9.34v6.877h-2.48V5.52a.767.767 0 0 0-.78-.775h-2.772a.767.767 0 0 0-.779.775v2.857h-2.53zm3.94 8.716c4.135 3.728 5.157 6.73 5.206 8.861 0 2.082-1.022 3.244-1.022 3.244-.778.969-1.946 1.647-3.308 1.647-1.751 0-3.26-1.162-3.795-2.663-.048-.049-.048-.049-.048-.097 0 0-.049-.049-.049-.097-.584-1.937.195-3.922 1.605-5.52 1.8-2.082 1.411-5.375 1.411-5.375zm5.79 16.318a3.86 3.86 0 0 1-1.995.533c-.876 0-1.849-.242-2.725-.533-1.605-.436-3.162-.872-4.767 0v-.872c1.605-.871 3.162-.484 4.767 0 1.606.436 3.163.872 4.768 0-.049.291-.049.63-.049.872z" fill="#343434"/></svg>