<svg width="30" height="51" fill="none" xmlns="http://www.w3.org/2000/svg"><path d="M15.6 10.385c.06 0 .06 0 0 0 1.645 1.892 6.032 2.258 9.201.427 2.498-1.464 3.9-4.333 4.327-8.665l.06-.428-.365-.183c-3.9-1.83-7.19-2.014-9.628-.61-3.23 1.892-4.936 5.797-4.083 8.422-.06 0-.06.06-.122.06-.914.672-1.401 1.71-1.462 3.235v.671l-.122-.122a7.738 7.738 0 0 0-1.219-.976v-.061c.183-2.075-2.193-4.638-5.118-5.187C4.814 6.54 2.62 7.456.305 9.714L0 10.019l.183.427c1.401 2.868 3.168 4.516 5.301 4.882 2.438.427 5.119-.55 6.155-2.075.244.122.487.366.792.671.548.61.914 1.282 1.036 2.137v9.397h-1.524a.834.834 0 0 0-.853.855v6.59c-.548.855-1.462 2.014-2.437 3.357-1.158 1.587-2.498 3.418-3.656 5.065v.122c0 .061-.061.061-.061.122a46.264 46.264 0 0 0-2.072 3.296c-.61 1.098-.975 1.953-.975 2.624 0 .854.366 1.587.914 2.136.549.549 1.28.915 2.133.915h18.403c.853 0 1.584-.366 2.132-.915l.061-.061c.488-.55.853-1.282.853-2.075 0-.61-.365-1.526-.975-2.624a46.241 46.241 0 0 0-2.071-3.296c0-.06-.061-.06-.061-.122-1.158-1.709-2.499-3.54-3.717-5.187-.975-1.343-1.828-2.502-2.438-3.356v-6.47a.834.834 0 0 0-.853-.854h-1.584V12.583c.06-1.099.365-1.83.914-2.197zm-5.545 26.913c1.035-1.465 2.01-2.747 2.559-3.601.122-.122.183-.305.183-.55V27.29h.609v13.792H7.312c.914-1.282 1.89-2.563 2.743-3.784zm5.3-10.009v5.859c0 .183.062.366.123.488.548.854 1.523 2.197 2.62 3.661.853 1.221 1.828 2.503 2.742 3.784h-6.154V27.29h.67z" fill="#343434"/></svg>