<svg width="62" height="62" fill="none" xmlns="http://www.w3.org/2000/svg"><path d="M31 1C14.457 1 1 14.466 1 31.012 1 47.56 14.458 61.026 31 61.026c16.54 0 30-13.466 30-30.014C61 14.465 47.54 1 31 1zM6.634 23.467C9.978 12.627 19.724 5.391 30.91 5.391c11.196 0 20.944 7.236 24.267 18.008.098.364.74 3.03-.913 4.69-.797.8-1.915 1.225-3.233 1.225-1.147 0-2.427-.328-3.708-.945-1.369-.662-2.916-1.674-4.551-2.747-3.53-2.318-7.93-5.198-11.865-5.24-3.923.042-8.137 2.803-11.855 5.235-1.636 1.076-3.182 2.09-4.553 2.752-2.749 1.331-5.454 1.22-6.938-.277-1.649-1.663-1.008-4.328-.927-4.625zM29.239 56.05a1.588 1.588 0 0 1-1.052.398c-.06 0-.121-.005-.181-.009C16.79 55.128 7.645 46.444 5.759 35.323a1.61 1.61 0 0 1 .35-1.29c.3-.35.742-.553 1.207-.553 12.169 0 22.451 9.796 22.451 21.392a1.612 1.612 0 0 1-.528 1.178zm-2.535-25.037A4.303 4.303 0 0 1 31 26.715a4.302 4.302 0 0 1 4.295 4.297A4.304 4.304 0 0 1 31 35.309a4.305 4.305 0 0 1-4.295-4.296zm7.292 25.427c-.06.004-.123.009-.18.009-.385 0-.762-.14-1.055-.398a1.593 1.593 0 0 1-.525-1.182c0-11.594 10.283-21.39 22.45-21.39.464 0 .907.204 1.208.556.299.355.428.83.35 1.29-1.887 11.119-11.033 19.803-22.248 21.115z" fill="#000" stroke="#000" stroke-miterlimit="10"/></svg>