<svg width="54" height="55" fill="none" xmlns="http://www.w3.org/2000/svg"><path d="M52.367 0H1.633A1.63 1.63 0 0 0 0 1.626v34.719a1.63 1.63 0 0 0 1.633 1.626H29.64l-.568-.86a1.915 1.915 0 0 1-.318-1.059v-9.664a6.355 6.355 0 0 1 4.376-6.03l.033-.01 1.59-.486a1.932 1.932 0 0 1 1.874.424l.333-.37c-2.513-1.064-4.28-3.545-4.28-6.43 0-3.85 3.148-6.982 7.016-6.982s7.015 3.132 7.015 6.982c0 2.884-1.766 5.365-4.278 6.429a2.4 2.4 0 0 1 .332.368 1.941 1.941 0 0 1 1.876-.42l1.637.5a6.307 6.307 0 0 1 4.36 6v9.69c0 .376-.11.742-.319 1.057l-.568.86h2.616A1.63 1.63 0 0 0 54 36.344V1.626A1.63 1.63 0 0 0 52.367 0zM28.633 17.407A1.63 1.63 0 0 1 27 19.033a1.63 1.63 0 0 1-1.633-1.626V15.02l-6.82 6.789a1.64 1.64 0 0 1-2.31 0l-2.016-2.007-5.187 5.163c-.32.318-.737.476-1.155.476a1.63 1.63 0 0 1-1.155-.476 1.62 1.62 0 0 1 0-2.3l6.342-6.312a1.64 1.64 0 0 1 2.31 0l2.016 2.007 5.665-5.64h-2.399a1.63 1.63 0 0 1-1.633-1.625 1.63 1.63 0 0 1 1.633-1.626H27a1.63 1.63 0 0 1 1.633 1.626v6.312z" fill="#343434"/><path d="M44.789 13.487c0-2.796-2.285-5.07-5.093-5.07-2.809 0-5.093 2.274-5.093 5.07 0 2.795 2.284 5.07 5.093 5.07 2.808 0 5.093-2.275 5.093-5.07zm.879 8.69l-.017-.005-1.575-.481-3.362 9.144c-.154.422-.54.697-.988.71-.478.012-.902-.31-1.066-.757L35.332 21.7l-1.605.476a4.44 4.44 0 0 0-3.05 4.213v9.664l3.57 5.413v13.098c0 .24.198.436.439.436h10.02a.439.439 0 0 0 .438-.436V41.466l3.57-5.406.002-9.697a4.397 4.397 0 0 0-3.048-4.186z" fill="#343434"/><path d="M39.107 23.899l-.384 3.223.756 2.001c.074.202.36.202.434 0l.756-2.001-.384-3.223.82-1.23a.705.705 0 0 0-.094-.835.742.742 0 0 0-.548-.227h-1.534a.706.706 0 0 0-.642 1.06l.82 1.232z" fill="#343434"/></svg>