<svg width="71" height="57" fill="none" xmlns="http://www.w3.org/2000/svg"><path fill-rule="evenodd" clip-rule="evenodd" d="M26.847 1.965c0-1.143.908-2.042 2.063-1.96 1.073 0 1.981.898 1.981 1.96 0 1.143-.908 2.042-1.98 2.042-1.156-.082-2.064-.98-2.064-2.042zm6.356 0c0-1.143.908-2.042 2.064-1.96 1.073 0 1.98.898 1.98 1.96 0 1.143-.907 2.042-1.98 2.042-1.156-.082-2.064-.98-2.064-2.042zm6.273 0c0-1.143.907-2.042 2.063-1.96 1.073 0 1.981.898 1.981 1.96 0 1.143-.908 2.042-1.98 2.042-1.157-.082-2.064-.98-2.064-2.042zM50.29 14.867a5.207 5.207 0 0 1 5.365-5.226c2.806 0 5.2 2.368 5.2 5.145.083 2.94-2.31 5.308-5.282 5.308-2.89 0-5.283-2.368-5.283-5.227zm-40.033 0a5.207 5.207 0 0 1 5.365-5.226c2.806 0 5.2 2.368 5.2 5.145.082 2.94-2.311 5.308-5.283 5.308-2.889 0-5.282-2.368-5.282-5.227z" fill="#000"/><path d="M21.235 37.161h-.33l-10.813-.571 2.806-7.105 5.283 2.613.578.245c.165.082.412.163.66.163l10.07-.163-.083-2.858-9.244-1.388-8.502-6.37-3.962-1.143L.352 38.876l-.082.163c-.166.49-.33 1.062-.248 1.715.082 2.205 2.063 3.92 4.292 3.757l14.197-.899.495 12.821 4.54.163.743-16.332c-.083-1.633-1.32-3.021-3.054-3.103zm27.899-.001h.33l10.813-.57-2.806-7.187-5.365 2.613-.578.245a1.568 1.568 0 0 1-.66.163l-10.07-.163.082-2.858 9.245-1.388 8.502-6.451 3.962-1.062 7.346 18.292.082.163c.165.49.33 1.062.248 1.715-.083 2.205-2.064 3.92-4.292 3.757l-14.197-.899-.495 12.821-4.54.163-.743-16.332c.165-1.551 1.403-2.94 3.136-3.021z" fill="#000"/><path d="M45.42 34.14H24.95v3.43h20.47v-3.43z" fill="#000"/><path d="M36.834 35.364h-3.302V56.27h3.302V35.364z" fill="#000"/></svg>