<svg width="114" height="114" fill="none" xmlns="http://www.w3.org/2000/svg"><path fill="#fff" d="M0 0h114v114H0z"/><path d="M54.726 24.068c-1.259.022-2.585.444-3.529 1.243-1.686 1.443-3.371 2.93-3.326 4.884.045 1.953 1.168 3.063 1.168 3.063s.765.577 0 1.155c-.764.577-9.732 6.215-9.26 17.847 0 0 .225 3.02-.112 6.26-.247 2.31.562 5.128 1.056 6.527.023.022.248.6-.27.244-2.427-1.51-4.427-3.752-6.09-6.57a18.966 18.966 0 0 1-2.405-9.28 18.971 18.971 0 0 1 9.732-16.605c-7.957 2.198-13.823 9.546-13.823 18.292 0 .666.023 1.332.09 1.976.067 1.51.225 3.907.652 4.861.652 1.443.584 4.551.584 5.062 0 .51.18 17.559 10.384 17.515 0 0 4.855.11 4.9-1.843.022-1.731-.472-1.909-.922-2.908-.427-.954-.764-.999-.517-4.062 0 0 .023-.622.248-.622.224 0 3.079 8.347 6.742 12.72 3.664 4.373 7.35 4.84 10.137 4.84 0 0 5.237 0 5.237-2.598 0-2.597-2.383-1.554-2.383-9.79 0-8.235 4.024-7.836 4.496-5.816.472 2.02.876 3.619.067 9.035-.831 5.417 1.394 6.06 3.439 6.06s12.766.334 14.632-29.946c0 0 .224-4.883-1.394-9.101 0 0 .697 8.058-4.383 12.387-5.08 4.329-7.979 3.685-7.979 3.685s-2.45-.178-3.438 1.043c-.99 1.199-.81 2.065-2.922 1.443-2.09-.644-2.113-1.154-4.023-.91-1.91.244-3.08.466-3.844-1.088-.764-1.554-1.596-2.553-3.169-2.841-1.573-.289-8.496-3.53-8.316-12.698.18-8.524 4.09-11.454 4.09-11.454s.653-.689 1.282-.4c.652.289 1.685.355 2.922-.755 1.236-1.11 2.045-1.953 4.248-2.708 0 0 1.528-.222 1.46-1.732-.067-1.531-1.303-4.817-2.876-5.794-.697-.421-1.619-.643-2.585-.621zm5.282 41.223c.36-.022.854.222 1.393.422.787.288 2.563.155 3.26.11.696-.043 1.168.245.606.911-.764.91-1.686.866-2.854.955-1.17.088-2.405-1.044-2.405-1.044-.068-.11-.63-.71-.36-1.132.068-.155.202-.222.36-.222zm-5.956-18.38c1.348-1.643 2.09-1.843 3.259-1.843 1.168 0 2.787.733 3.259 2.53.517 1.954.786 2.265-1.102 4.44-1.348 1.577-3.798 4.995-6.248 2.82-2.427-2.176-1.528-5.084.832-7.947zm21.891 3.04c-.787-1.953-1.438-2.375-2.562-2.73-1.101-.355-2.877-.11-3.888 1.443-1.102 1.71-1.484 1.865-.337 4.529.809 1.887 2.135 5.949 5.146 4.573 3.012-1.332 3.035-4.373 1.641-7.814zM63.042 62.806c.63-.955 2.068-1.288 2.922-1.31 1.101-.044 1.079-.977 1.079-.977s.067-.954-3.911-1.332c-3.978-.377-4.09.622-4.09.622s-.18.932.898 1.154c.832.178 2.18.777 2.63 1.82.09.267.337.267.472.023zm18.79-23.62c-.674.222-1.708.156-2.81-1.065-1.1-1.221-1.798-2.176-3.933-3.152 0 0-1.483-.4-1.258-1.887.224-1.488 1.82-4.618 3.483-5.417 1.663-.799 4.495-.31 6.024 1.31 1.528 1.62 3.034 3.285 2.764 5.239-.27 1.931-1.506 2.908-1.506 2.908h.023c-.607.755-2.787 2.064-2.787 2.064z" fill="#000"/></svg>