<svg width="39" height="39" fill="none" xmlns="http://www.w3.org/2000/svg"><path fill="#fff" d="M0 0h39v39H0z"/><path d="M18.722 8.234c-.43.008-.885.152-1.207.425-.577.494-1.154 1.003-1.139 1.671.016.668.4 1.048.4 1.048s.262.197 0 .395c-.261.197-3.329 2.126-3.168 6.106 0 0 .077 1.032-.038 2.141-.085.79.192 1.755.361 2.233.008.008.085.205-.092.084-.83-.517-1.515-1.284-2.084-2.248a6.488 6.488 0 0 1-.822-3.175 6.49 6.49 0 0 1 3.329-5.68 6.481 6.481 0 0 0-4.729 6.257c0 .228.008.456.031.676.023.517.077 1.337.223 1.663.223.494.2 1.557.2 1.732 0 .175.061 6.007 3.552 5.992 0 0 1.661.038 1.677-.63.007-.593-.162-.654-.316-.995-.146-.327-.261-.342-.177-1.39 0 0 .008-.213.085-.213.077 0 1.053 2.856 2.307 4.352 1.253 1.496 2.514 1.655 3.468 1.655 0 0 1.791 0 1.791-.888 0-.889-.815-.532-.815-3.35 0-2.817 1.376-2.68 1.538-1.989.161.691.3 1.238.023 3.09-.285 1.854.477 2.074 1.176 2.074.7 0 4.368.114 5.006-10.244 0 0 .077-1.671-.477-3.114 0 0 .239 2.757-1.5 4.237-1.737 1.481-2.729 1.261-2.729 1.261s-.838-.06-1.176.357c-.339.41-.277.706-1 .494-.715-.22-.723-.395-1.376-.312-.654.084-1.054.16-1.315-.372-.261-.532-.546-.873-1.084-.972-.538-.099-2.907-1.207-2.845-4.344.061-2.916 1.4-3.919 1.4-3.919s.222-.235.438-.136c.222.099.576.121 1-.258.422-.38.699-.669 1.452-.927 0 0 .523-.076.5-.592-.023-.524-.446-1.648-.984-1.982a1.658 1.658 0 0 0-.884-.213zm1.807 14.103c.123-.008.292.076.476.144.27.099.877.053 1.115.038.239-.015.4.083.208.311-.261.312-.577.296-.977.327-.4.03-.822-.357-.822-.357-.023-.038-.216-.243-.123-.387.023-.054.069-.076.123-.076zm-2.038-6.288c.461-.563.715-.63 1.115-.63s.953.25 1.115.865c.177.668.269.774-.377 1.519-.461.539-1.3 1.709-2.138.964-.83-.744-.522-1.739.285-2.718zm7.49 1.04c-.27-.668-.493-.813-.877-.934a1.184 1.184 0 0 0-1.33.493c-.377.585-.508.638-.116 1.55.277.645.73 2.035 1.761 1.564 1.03-.456 1.038-1.496.561-2.673zm-4.414 4.397c.215-.326.707-.44 1-.448.376-.015.368-.334.368-.334s.023-.327-1.337-.456c-1.361-.129-1.4.213-1.4.213s-.061.319.308.395c.284.06.745.265.9.622.03.091.115.091.16.008zm6.428-8.08c-.23.076-.585.053-.961-.365-.377-.418-.615-.744-1.346-1.078 0 0-.507-.137-.43-.646.076-.509.622-1.58 1.191-1.853.57-.273 1.538-.106 2.061.448.523.555 1.038 1.124.946 1.792-.093.661-.515.995-.515.995h.007c-.207.259-.953.707-.953.707z" fill="#000"/></svg>