<svg width="35" height="35" fill="none" xmlns="http://www.w3.org/2000/svg"><path d="M18.195 10.876l.205 5.412s.36-.154 1.44-.412c.822-.31.822-.31 1.387-.412 0 0 .103-2.578.154-2.732.052-.155.514-.361 1.542-.361 1.08 0 1.49.206 1.49.412 0 .207.103 2.062.103 2.062s2.416-.36 4.83-.515c2.468-.155 5.243 0 5.243 0s-.103-.877-.514-2.114c-.463-1.391-.822-2.113-.822-2.113s-2.262-.567-7.71-.258c-4.367.206-7.348 1.031-7.348 1.031zm10.638-6.804s-.617-.722-3.186-2.113C22.667.36 19.994 0 17.784 0c-2.004 0-4.471.258-7.812 1.65-3.597 1.546-6.784 5.618-6.784 5.618s4.986-2.423 12.437-3.454c7.195-.927 13.208.258 13.208.258z" fill="#B7B7B7"/><path d="M31.454 7.01c-.873-1.185-1.747-2.061-1.747-2.061s-6.373-1.495-15.52.309C7.3 6.598 1.8 9.639 1.8 9.639S1.287 10.67.72 12.681c-.462 1.7-.616 3.092-.616 3.092s1.953-1.082 5.807-2.629c6.219-2.525 8.737-3.04 8.737-3.04s.154-2.63.206-2.784c.05-.206.873-.361 1.644-.361.771 0 1.696.155 1.696.31 0 .154.051 2.164.051 2.164s4.266-.67 7.606-.67c4.729-.052 6.99.464 6.99.464s-.514-.98-1.388-2.217z" fill="#B7B7B7"/><path d="M.002 18.144s-.051 1.495.36 3.3c.36 1.597.873 2.834.873 2.834s3.238-1.958 6.219-3.453c3.854-1.959 6.732-3.196 6.732-3.196l.309-5.928s-2.981.825-7.966 3.144c-4.882 2.217-6.527 3.3-6.527 3.3zm18.45-.258l.205 5.103s.566-.257 1.13-.463c.566-.258 1.08-.464 1.08-.464l.257-5.104s-.514.155-1.439.464c-.565.207-.77.258-1.233.464zm6.116-1.7s2.158-.567 4.574-.773c3.597-.31 5.601-.104 5.601-.104s.258 1.186.258 2.372c0 .979-.103 1.7-.103 1.7s-1.337.052-2.673.207c-1.079.103-2.466.31-2.466.31s-.103-1.857-.103-2.063c0-.154-.463-.309-1.336-.309-.771 0-1.285.155-1.285.258 0 .154 0-.103-.103 2.474 0 0-.514.155-.976.258-.463.103-1.131.309-1.131.309l-.257-4.64zm-10.484 3.401l-.309 5.774c-1.387.876-1.439.927-3.597 2.32-2.21 1.442-4.471 3.246-4.471 3.246s-.617-.463-1.953-2.113a13.731 13.731 0 0 1-1.542-2.32s2.775-2.01 6.27-4.02c3.443-1.907 5.602-2.887 5.602-2.887zm-.411 8.197l-.257 6.391-.925.825s-1.388-.515-2.724-1.134c-1.336-.67-2.261-1.34-2.261-1.34s1.542-1.289 2.62-2.114a249.054 249.054 0 0 1 3.547-2.628zm5.036-2.887l.205 5.722 1.593-1.031.257-5.722s-.205.052-1.13.516c-.617.36-.925.515-.925.515zm10.997-3.763l.103 3.969s1.645-.722 2.364-1.031c.823-.31 1.645-.67 1.645-.67l.514-1.34c.36-1.134.411-1.753.411-1.753s-.977.052-2.57.31a46.325 46.325 0 0 0-2.467.515zM24.98 27.37l1.49-.824.308-4.845s-.257.051-1.028.309c-.822.31-1.028.36-1.028.36l.257 5z" fill="#B7B7B7"/></svg>