<svg width="179" height="71" fill="none" xmlns="http://www.w3.org/2000/svg"><path fill="#E21A1A" d="M0 0h70.658v71H0z"/><path fill="#194D92" d="M179 0H70.658v71H179z"/><path d="M35.998 28.168l.248 6.558s.432-.187 1.729-.5c.988-.374.988-.374 1.668-.499 0 0 .123-3.123.185-3.31.062-.188.618-.438 1.853-.438 1.297 0 1.791.25 1.791.5s.124 2.498.124 2.498 2.903-.437 5.806-.624c2.964-.188 6.3 0 6.3 0s-.124-1.062-.618-2.561c-.556-1.687-.988-2.561-.988-2.561s-2.718-.687-9.265-.313c-5.25.25-8.833 1.25-8.833 1.25zm12.785-8.245s-.74-.875-3.829-2.561c-3.582-1.936-6.794-2.374-9.45-2.374-2.409 0-5.373.313-9.388 2-4.324 1.873-8.153 6.808-8.153 6.808s5.991-2.936 14.947-4.185c8.647-1.125 15.873.312 15.873.312z" fill="#fff"/><path d="M51.933 23.483c-1.05-1.436-2.1-2.498-2.1-2.498s-7.658-1.812-18.653.375c-8.276 1.624-14.885 5.309-14.885 5.309s-.618 1.25-1.297 3.685a27.645 27.645 0 0 0-.741 3.748s2.347-1.312 6.98-3.185c7.473-3.061 10.5-3.686 10.5-3.686s.185-3.186.246-3.373c.062-.25 1.05-.437 1.977-.437.926 0 2.038.187 2.038.375 0 .187.062 2.623.062 2.623s5.126-.812 9.141-.812c5.682-.062 8.4.562 8.4.562s-.618-1.186-1.668-2.686z" fill="#fff"/><path d="M14.133 36.976s-.061 1.811.433 3.998a23.428 23.428 0 0 0 1.05 3.435s3.89-2.374 7.473-4.185c4.633-2.374 8.091-3.873 8.091-3.873l.371-7.183s-3.582 1-9.574 3.81c-5.867 2.686-7.844 3.998-7.844 3.998zm22.174-.313l.247 6.184s.68-.312 1.358-.562c.68-.312 1.298-.562 1.298-.562l.308-6.184s-.617.188-1.729.562c-.68.25-.927.313-1.482.562zm7.35-2.061s2.594-.687 5.497-.936c4.323-.375 6.732-.125 6.732-.125s.309 1.436.309 2.873c0 1.187-.124 2.061-.124 2.061s-1.605.063-3.211.25c-1.297.125-2.965.375-2.965.375s-.124-2.249-.124-2.499c0-.187-.555-.374-1.605-.374-.927 0-1.545.187-1.545.312 0 .187 0-.125-.123 2.998 0 0-.618.187-1.174.312-.555.125-1.358.375-1.358.375l-.31-5.622zm-12.6 4.123l-.37 6.995c-1.669 1.062-1.73 1.125-4.324 2.811-2.656 1.75-5.374 3.936-5.374 3.936s-.741-.563-2.347-2.561c-1.174-1.437-1.853-2.811-1.853-2.811s3.335-2.436 7.535-4.872c4.139-2.312 6.733-3.498 6.733-3.498zm-.494 9.931l-.31 7.746-1.11 1s-1.669-.626-3.274-1.375c-1.606-.812-2.718-1.624-2.718-1.624s1.853-1.562 3.15-2.561c1.791-1.374 4.262-3.186 4.262-3.186zm6.053-3.498l.247 6.934 1.915-1.25.308-6.933s-.247.063-1.358.625c-.742.437-1.112.624-1.112.624zm13.217-4.56l.123 4.81s1.977-.875 2.842-1.25c.988-.374 1.976-.812 1.976-.812l.618-1.624c.432-1.374.494-2.123.494-2.123s-1.174.062-3.088.374c-1.42.25-2.965.625-2.965.625zm-5.682 7.558l1.791-1 .37-5.87s-.308.062-1.234.374c-.989.375-1.236.437-1.236.437l.31 6.06zm52.999-16.47l3.892 1.187a7.016 7.016 0 0 1-1.236 2.748 5.07 5.07 0 0 1-2.1 1.687c-.803.375-1.853.562-3.15.562-1.544 0-2.84-.25-3.83-.687-.987-.437-1.852-1.25-2.531-2.436-.742-1.124-1.05-2.623-1.05-4.435 0-2.374.617-4.248 1.853-5.497 1.235-1.312 3.026-1.936 5.311-1.936 1.791 0 3.212.375 4.262 1.124 1.05.75 1.791 1.874 2.285 3.373l-3.89.875c-.124-.438-.31-.75-.433-1-.247-.312-.556-.624-.927-.812-.37-.187-.74-.25-1.173-.25-.989 0-1.791.438-2.286 1.25-.432.624-.617 1.561-.617 2.873 0 1.624.247 2.686.741 3.31.494.625 1.174.875 2.038.875.865 0 1.483-.25 1.915-.75.432-.437.741-1.124.926-2.06zM107.774 29h1.853c.185 0 .618-.063 1.174-.188.309-.062.556-.187.741-.437.185-.25.247-.5.247-.812 0-.437-.124-.812-.432-1.062-.309-.25-.865-.375-1.668-.375h-1.915V29zm-4.447 8.62V23.127h7.35c1.359 0 2.409.125 3.15.375.741.25 1.297.687 1.73 1.311.432.625.679 1.437.679 2.374 0 .812-.185 1.5-.494 2.061-.309.563-.803 1.062-1.421 1.437-.37.25-.864.437-1.544.562.556.188.927.375 1.174.562.185.125.37.375.679.75.309.375.494.687.618.874l2.162 4.185h-5.003l-2.347-4.434c-.309-.563-.556-.937-.803-1.125-.309-.25-.68-.312-1.112-.312h-.371v5.871h-4.447zm15.565-14.492h11.797v3.123h-7.412v2.311h6.856v2.936h-6.856v2.873h7.659v3.248h-12.044V23.128zm18.344 7.308c0 1.437.247 2.498.803 3.123s1.235.937 2.162.937c.926 0 1.667-.312 2.223-.937.494-.624.803-1.749.803-3.373 0-1.374-.247-2.373-.803-2.998s-1.297-.937-2.223-.937c-.865 0-1.606.312-2.162.937-.556.687-.803 1.749-.803 3.248zm-4.385-.063c0-2.373.617-4.184 1.976-5.496 1.297-1.312 3.088-2 5.435-2 2.347 0 4.2.626 5.497 1.937 1.297 1.312 1.915 3.123 1.915 5.435 0 1.686-.309 3.06-.865 4.185-.555 1.062-1.358 1.936-2.408 2.498-1.05.625-2.409.875-3.953.875-1.606 0-2.965-.25-4.015-.75-1.05-.5-1.915-1.374-2.594-2.498-.68-1.062-.988-2.436-.988-4.185zm17.294-7.245h4.076l5.374 8.058v-8.058h4.2v14.491h-4.2l-5.312-7.932v7.932h-4.138V23.128zm-31.438 24.298c-.309-.312-.432-.75-.432-1.25 0-.499.123-.936.432-1.248.309-.313.618-.5 1.05-.5.432 0 .741.187 1.05.5.309.312.432.749.432 1.249 0 .5-.123.937-.432 1.249-.309.312-.618.5-1.05.5-.371 0-.741-.188-1.05-.5zm-.371 3.748v-2.686a2.389 2.389 0 0 0 1.915.937c.371 0 .741-.063 1.05-.188a2.05 2.05 0 0 0 .865-.624c.247-.25.494-.625.618-1 .123-.437.247-.874.247-1.374 0-.5-.062-.937-.247-1.374-.186-.437-.371-.75-.618-1s-.556-.437-.865-.624a2.856 2.856 0 0 0-1.05-.187c-.803 0-1.42.312-1.915.999v-.874h-1.729v7.995h1.729zm-5.805-1.999c.247-.187.555-.437.803-.75v.875h1.729v-6.184h-1.729v3.435c0 .438-.124.75-.309.938-.186.187-.433.312-.803.312-.309 0-.618-.125-.803-.313-.185-.187-.247-.5-.247-.937v-3.435h-1.73v3.998c0 .687.186 1.249.556 1.686.371.438.865.625 1.544.625.371 0 .68-.125.989-.25zm-8.771-1.749c-.309-.312-.432-.75-.432-1.187 0-.5.123-.874.432-1.187.309-.312.679-.5 1.174-.5.494 0 .864.188 1.173.5.309.313.432.75.432 1.187 0 .5-.123.875-.432 1.187-.309.312-.679.5-1.173.5-.495 0-.865-.188-1.174-.5zm2.841 1.562c.494-.313.927-.688 1.174-1.187.309-.5.432-1.062.432-1.624s-.123-1.125-.432-1.624c-.309-.5-.68-.875-1.174-1.187-.494-.312-1.05-.437-1.667-.437-.495 0-.927.062-1.298.25-.432.187-.741.374-1.05.687-.308.312-.494.624-.679.999-.185.375-.247.812-.247 1.25 0 .561.124 1.124.432 1.623.309.5.68.875 1.174 1.187.494.313 1.05.437 1.668.437.555.063 1.111-.062 1.667-.374zm-7.597.312v-2.311c0-.75.185-1.25.494-1.624.31-.375.803-.562 1.359-.562h.124V42.99c-.927-.062-1.544.437-1.977 1.374v-1.249h-1.73V49.3h1.73zm-3.273-1.124v-3.498h-3.46v1.499h1.792v1.187c-.432.312-.988.5-1.668.5-.68 0-1.297-.25-1.73-.75a2.739 2.739 0 0 1-.678-1.812c0-.687.247-1.312.679-1.749.432-.5.988-.75 1.606-.75.432 0 .803.063 1.111.188.31.125.618.312.989.625l1.112-1.374c-.433-.375-.927-.625-1.36-.813-.493-.187-1.05-.25-1.729-.25-.617 0-1.173.126-1.667.313-.494.25-.989.5-1.36.875-.37.374-.679.812-.864 1.311a4.739 4.739 0 0 0-.309 1.624c0 .562.124 1.125.31 1.687.184.5.493.937.864 1.312.37.374.803.687 1.359.874a5.02 5.02 0 0 0 1.73.312c1.173-.062 2.284-.5 3.273-1.311z" fill="#fff"/></svg>