<svg width="50" height="50" viewBox="0 0 50 50" fill="none" xmlns="http://www.w3.org/2000/svg">
<rect width="50" height="50" transform="matrix(-1 0 0 1 50 0)" fill="#194D92"/>
<path d="M25.8809 18.6531L26.0603 23.4567C26.0603 23.4567 26.3743 23.3194 27.3163 23.0907C28.034 22.8162 28.034 22.8162 28.5274 22.7247C28.5274 22.7247 28.6171 20.4373 28.662 20.3001C28.7069 20.1628 29.1106 19.9798 30.0077 19.9798C30.9497 19.9798 31.3086 20.1628 31.3086 20.3458C31.3086 20.5288 31.3983 22.1757 31.3983 22.1757C31.3983 22.1757 33.5066 21.8555 35.6148 21.7182C37.768 21.581 40.1903 21.7182 40.1903 21.7182C40.1903 21.7182 40.1005 20.9405 39.7417 19.8426C39.338 18.6074 39.024 17.9669 39.024 17.9669C39.024 17.9669 37.0503 17.4637 32.2954 17.7382C28.4826 17.9212 25.8809 18.6531 25.8809 18.6531Z" fill="white"/>
<path d="M35.1669 12.6141C35.1669 12.6141 34.6286 11.9736 32.3857 10.7384C29.784 9.32023 27.4515 9 25.5226 9C23.7732 9 21.62 9.22874 18.7043 10.4639C15.5643 11.8364 12.7832 15.4504 12.7832 15.4504C12.7832 15.4504 17.1343 13.3003 23.6386 12.3853C29.9186 11.5619 35.1669 12.6141 35.1669 12.6141Z" fill="white"/>
<path d="M37.4546 15.2219C36.692 14.1697 35.9294 13.392 35.9294 13.392C35.9294 13.392 30.3672 12.0653 22.3826 13.6665C16.3718 14.8559 11.5721 17.555 11.5721 17.555C11.5721 17.555 11.1235 18.47 10.6301 20.2542C10.2264 21.7638 10.0918 22.999 10.0918 22.999C10.0918 22.999 11.7964 22.0383 15.1606 20.6659C20.5883 18.4242 22.7863 17.9668 22.7863 17.9668C22.7863 17.9668 22.9209 15.6336 22.9658 15.4964C23.0106 15.3134 23.7283 15.1762 24.4012 15.1762C25.074 15.1762 25.8815 15.3134 25.8815 15.4506C25.8815 15.5879 25.9263 17.372 25.9263 17.372C25.9263 17.372 29.6495 16.7773 32.5652 16.7773C36.692 16.7316 38.6657 17.1891 38.6657 17.1891C38.6657 17.1891 38.2172 16.3198 37.4546 15.2219Z" fill="white"/>
<path d="M10.0018 25.1032C10.0018 25.1032 9.95694 26.4299 10.3158 28.0311C10.6298 29.4493 11.0784 30.5472 11.0784 30.5472C11.0784 30.5472 13.9044 28.8088 16.5061 27.4821C19.8703 25.7437 22.3823 24.6458 22.3823 24.6458L22.6515 19.3848C22.6515 19.3848 20.0498 20.1167 15.6986 22.1754C11.4372 24.1425 10.0018 25.1032 10.0018 25.1032Z" fill="white"/>
<path d="M26.1055 24.8742L26.2849 29.4033C26.2849 29.4033 26.7783 29.1745 27.2718 28.9915C27.7652 28.7628 28.2138 28.5798 28.2138 28.5798L28.438 24.0508C28.438 24.0508 27.9895 24.188 27.182 24.4625C26.6886 24.6455 26.5092 24.6913 26.1055 24.8742Z" fill="white"/>
<path d="M31.4434 23.3648C31.4434 23.3648 33.3274 22.8616 35.4356 22.6786C38.5756 22.4041 40.3251 22.5871 40.3251 22.5871C40.3251 22.5871 40.5493 23.6393 40.5493 24.6915C40.5493 25.5607 40.4596 26.2012 40.4596 26.2012C40.4596 26.2012 39.2933 26.2469 38.1271 26.3842C37.1851 26.4757 35.9739 26.6587 35.9739 26.6587C35.9739 26.6587 35.8842 25.0117 35.8842 24.8287C35.8842 24.6915 35.4805 24.5543 34.7179 24.5543C34.0451 24.5543 33.5965 24.6915 33.5965 24.783C33.5965 24.9202 33.5965 24.6915 33.5068 26.9789C33.5068 26.9789 33.0582 27.1161 32.6545 27.2076C32.2508 27.2991 31.6676 27.4821 31.6676 27.4821L31.4434 23.3648Z" fill="white"/>
<path d="M22.2917 26.3838L22.0225 31.5075C20.8114 32.2853 20.7665 32.331 18.8825 33.5662C16.9537 34.8471 14.98 36.4483 14.98 36.4483C14.98 36.4483 14.4417 36.0366 13.2754 34.5726C12.4231 33.5204 11.9297 32.514 11.9297 32.514C11.9297 32.514 14.352 30.7298 17.4022 28.9457C20.4077 27.253 22.2917 26.3838 22.2917 26.3838Z" fill="white"/>
<path d="M21.9336 33.6582L21.7093 39.3309L20.9019 40.0629C20.9019 40.0629 19.6908 39.6054 18.5245 39.0564C17.3582 38.4617 16.5508 37.867 16.5508 37.867C16.5508 37.867 17.8965 36.7233 18.8385 35.9913C20.1393 34.9849 21.9336 33.6582 21.9336 33.6582Z" fill="white"/>
<path d="M26.3301 31.0966L26.5095 36.1746L27.9001 35.2596L28.1244 30.1816C28.1244 30.1816 27.9449 30.2274 27.1375 30.6391C26.5992 30.9594 26.3301 31.0966 26.3301 31.0966Z" fill="white"/>
<path d="M35.9297 27.7564L36.0194 31.279C36.0194 31.279 37.4548 30.6385 38.0828 30.364C38.8005 30.0895 39.5182 29.7693 39.5182 29.7693C39.5182 29.7693 39.7425 29.1746 39.9668 28.5798C40.2808 27.5734 40.3257 27.0244 40.3257 27.0244C40.3257 27.0244 39.4734 27.0702 38.0828 27.2989C37.0511 27.4819 35.9297 27.7564 35.9297 27.7564Z" fill="white"/>
<path d="M31.8024 33.292L33.1033 32.5601L33.3724 28.2598C33.3724 28.2598 33.1481 28.3055 32.4753 28.5343C31.7576 28.8087 31.5781 28.8545 31.5781 28.8545L31.8024 33.292Z" fill="white"/>
</svg>
