<svg width="54" height="49" fill="none" xmlns="http://www.w3.org/2000/svg"><path d="M2.94 14.33l4.478-4.477 4.477 4.476c.336.336.777.505 1.218.505a1.722 1.722 0 0 0 1.218-2.94L9.854 7.416l4.477-4.477A1.722 1.722 0 1 0 11.895.505L7.418 4.98 2.94.504A1.723 1.723 0 0 0 .505 2.94L4.98 7.417.505 11.893A1.722 1.722 0 1 0 2.94 14.33zm34.171 20.34a1.723 1.723 0 0 0-2.436 0l-4.477 4.477-4.477-4.476a1.723 1.723 0 0 0-2.436 2.436l4.477 4.476-4.477 4.477a1.722 1.722 0 1 0 2.436 2.436l4.477-4.477 4.477 4.477c.336.336.777.504 1.218.504a1.722 1.722 0 0 0 1.218-2.94l-4.477-4.477 4.477-4.476a1.722 1.722 0 0 0 0-2.436zm.134-24.15l-6.947-6.04a1.722 1.722 0 0 0-2.26 2.6l3.684 3.202c-10.873 1.422-17.311 7.104-20.89 11.906-3.307 4.436-4.756 8.802-5.278 10.726a7.89 7.89 0 0 1 3.497.317 29.93 29.93 0 0 1 4.626-9.096c4.48-5.949 10.703-9.453 18.532-10.45l-3.433 3.95a1.722 1.722 0 1 0 2.6 2.259l6.039-6.946a1.722 1.722 0 0 0-.17-2.43zM6.604 35.68a5.095 5.095 0 0 0-5.09 5.09 5.096 5.096 0 0 0 5.09 5.09 5.096 5.096 0 0 0 5.09-5.09 5.095 5.095 0 0 0-5.09-5.09zM48.91 6.395a5.096 5.096 0 0 0-5.09 5.089 5.096 5.096 0 0 0 5.09 5.09 5.096 5.096 0 0 0 5.09-5.09 5.096 5.096 0 0 0-5.09-5.09z" fill="#343434"/></svg>