<svg width="53" height="53" fill="none" xmlns="http://www.w3.org/2000/svg"><path d="M26.437 10.145c-2.76 0-5.005-2.275-5.005-5.072S23.678 0 26.437 0c2.76 0 5.005 2.276 5.005 5.073 0 2.797-2.245 5.072-5.005 5.072zm7.891 15.561h-15.78c-1.028 0-1.86-.845-1.86-1.886v-6.974c0-1.93 1.223-3.642 3.033-4.243l.009-.003 2.647-.444c.225-.07.466.05.547.276l3.004 8.353a.54.54 0 0 0 1.019 0l3.004-8.353a.444.444 0 0 1 .416-.296c.043 0 2.778.464 2.778.464a4.49 4.49 0 0 1 3.044 4.27v6.95c0 1.041-.833 1.886-1.86 1.886zM3.616 38.575l.03-.01 1.432-.444a1.267 1.267 0 0 1 1.232.277l3.089 2.83 3.088-2.83a1.265 1.265 0 0 1 1.233-.277l1.433.445.03.01c2.162.73 3.615 2.773 3.615 5.084v8.044c0 .716-.573 1.296-1.279 1.296H1.28C.573 53 0 52.42 0 51.704V43.66c0-2.31 1.453-4.354 3.616-5.084zm5.783-1.349c-2.944 0-5.339-2.427-5.339-5.41 0-2.984 2.395-5.411 5.339-5.411 2.944 0 5.339 2.427 5.339 5.41 0 2.984-2.395 5.411-5.34 5.411zm28.419 1.349l.03-.01 1.432-.444c.43-.135.899-.029 1.233.277l3.088 2.83 3.089-2.83a1.265 1.265 0 0 1 1.232-.277l1.462.454C51.547 39.306 53 41.35 53 43.66v8.044C53 52.42 52.428 53 51.721 53h-16.24c-.706 0-1.279-.58-1.279-1.296V43.66c0-2.31 1.453-4.354 3.616-5.084zm11.122-6.759c0 2.983-2.395 5.41-5.339 5.41-2.944 0-5.339-2.427-5.339-5.41 0-2.984 2.395-5.411 5.34-5.411 2.943 0 5.338 2.427 5.338 5.41zm-41-14.269c.437-.133.93-.043 1.298.285.568.507.624 1.384.125 1.96l-1.873 2.16a1.363 1.363 0 0 1-2.058 0l-1.874-2.16a1.402 1.402 0 0 1 .125-1.96 1.356 1.356 0 0 1 1.493-.21c.28-3.033 1.445-5.88 3.377-8.107a1.357 1.357 0 0 1 1.934-.127c.568.506.624 1.384.125 1.96-1.478 1.704-2.396 3.871-2.672 6.199zm39.505 4.405a1.362 1.362 0 0 1-2.058 0l-1.873-2.16a1.402 1.402 0 0 1 .124-1.96 1.354 1.354 0 0 1 1.299-.285c-.276-2.328-1.194-4.495-2.672-6.2a1.402 1.402 0 0 1 .125-1.959 1.358 1.358 0 0 1 1.933.126c1.932 2.229 3.098 5.075 3.377 8.107.48-.23 1.07-.167 1.493.211.569.506.625 1.384.125 1.96l-1.873 2.16z" fill="#343434"/><path d="M25.408 12.236a.611.611 0 0 1 .455-.192h1.274c.17 0 .34.065.455.192a.606.606 0 0 1 .078.706l-.681 1.04.319 2.727-.628 1.692a.19.19 0 0 1-.36 0l-.628-1.692.32-2.726-.682-1.041a.605.605 0 0 1 .078-.706z" fill="#343434"/></svg>