<svg width="52" height="51" fill="none" xmlns="http://www.w3.org/2000/svg"><path d="M32.788 19.7a2.724 2.724 0 0 0 2.732-2.715c0-1.5-1.223-2.716-2.732-2.716a2.724 2.724 0 0 0-2.733 2.716c0 1.5 1.224 2.715 2.733 2.715z" fill="#343434"/><path d="M50.757 14.287h-3.115a15.373 15.373 0 0 0-.932-2.233l2.203-2.19a1.23 1.23 0 0 0 0-1.746l-5.082-5.052a1.248 1.248 0 0 0-1.757 0l-2.204 2.19a15.608 15.608 0 0 0-2.246-.926V1.235C37.624.553 37.068 0 36.38 0h-7.187a1.24 1.24 0 0 0-1.243 1.235V4.33c-.77.25-1.521.559-2.246.926L23.5 3.066a1.246 1.246 0 0 0-1.757 0l-5.082 5.05a1.23 1.23 0 0 0 0 1.747l2.204 2.19c-.37.72-.68 1.466-.932 2.233h-3.115c-.686 0-1.242.552-1.242 1.234v7.144c0 .681.556 1.234 1.242 1.234h3.115c.251.767.563 1.513.932 2.233l-2.203 2.19a1.23 1.23 0 0 0 0 1.746l5.082 5.051a1.248 1.248 0 0 0 1.757 0l2.204-2.19c.724.367 1.475.677 2.246.927v3.096c0 .681.556 1.234 1.243 1.234h7.187a1.24 1.24 0 0 0 1.243-1.234v-3.096c.77-.25 1.521-.56 2.246-.927l2.204 2.19a1.248 1.248 0 0 0 1.757 0l5.082-5.05a1.23 1.23 0 0 0 0-1.747l-2.204-2.19a15.4 15.4 0 0 0 .933-2.233h3.115c.686 0 1.242-.552 1.242-1.234V15.52a1.24 1.24 0 0 0-1.243-1.234zM32.788 27.562c-4.699 0-8.522-3.8-8.522-8.469 0-4.67 3.823-8.47 8.522-8.47s8.522 3.8 8.522 8.47c0 4.67-3.823 8.47-8.522 8.47zM19.61 37.577h-1.163a8.677 8.677 0 0 0-.172-.412l.823-.818a1.23 1.23 0 0 0 0-1.746L16.5 32.019a1.249 1.249 0 0 0-1.757 0l-.823.818a8.758 8.758 0 0 0-.415-.171V31.51c0-.682-.556-1.235-1.242-1.235H8.59a1.24 1.24 0 0 0-1.243 1.235v1.156c-.14.053-.278.11-.415.17l-.823-.817a1.248 1.248 0 0 0-1.757 0l-2.597 2.582a1.23 1.23 0 0 0 0 1.746l.823.818a8.741 8.741 0 0 0-.173.412H1.242C.556 37.577 0 38.13 0 38.812v3.651c0 .682.556 1.235 1.242 1.235h1.164c.054.139.111.276.172.412l-.823.818a1.23 1.23 0 0 0 0 1.746l2.598 2.582a1.248 1.248 0 0 0 1.757 0l.823-.818a8.4 8.4 0 0 0 .415.171v1.156c0 .682.556 1.235 1.242 1.235h3.674c.686 0 1.242-.553 1.242-1.235V48.61c.14-.053.278-.11.415-.171l.823.818a1.248 1.248 0 0 0 1.757 0l2.598-2.582a1.23 1.23 0 0 0 0-1.746l-.823-.818c.06-.136.118-.273.172-.412h1.163a1.24 1.24 0 0 0 1.243-1.235v-3.651a1.24 1.24 0 0 0-1.243-1.235zm-9.184 7.293c-2.348 0-4.259-1.899-4.259-4.233 0-2.334 1.91-4.233 4.26-4.233 2.348 0 4.259 1.9 4.259 4.233 0 2.334-1.911 4.233-4.26 4.233z" fill="#343434"/><path d="M35.851 21.207l-.816-.248-2.247 1.061-2.247-1.061-.816.248a2.272 2.272 0 0 0-1.551 1.948 6.218 6.218 0 0 0 4.614 2.044c1.83 0 3.476-.79 4.614-2.044a2.272 2.272 0 0 0-1.55-1.948z" fill="#343434"/></svg>