<svg width="47" height="46" fill="none" xmlns="http://www.w3.org/2000/svg"><path d="M45.976 40.897H29.63a1.023 1.023 0 0 1-1.022-1.021c0-.564.46-1.021 1.022-1.021h14.578L34.26 21.642a1.025 1.025 0 0 1 .376-1.399 1.014 1.014 0 0 1 1.395.378l10.834 18.744c.18.315.18.707 0 1.021-.186.314-.523.51-.889.51zM12.498 21.031c-.173 0-.35-.043-.51-.132a1.024 1.024 0 0 1-.374-1.399L22.61.476c.366-.635 1.406-.635 1.77 0l9.553 16.534a1.023 1.023 0 0 1-.374 1.398 1.019 1.019 0 0 1-1.396-.378l-8.67-15.002-10.11 17.493a1.02 1.02 0 0 1-.886.51zm11.001 19.866H1.02a1.023 1.023 0 0 1-.885-1.532l9.55-16.523c.281-.49.906-.657 1.395-.378.488.286.656.905.374 1.399L2.79 38.855h20.708a1.022 1.022 0 1 1 0 2.042z" fill="#343434"/><path d="M21.55 46a1.019 1.019 0 0 1-.838-1.605l3.154-4.515-3.15-4.455a1.022 1.022 0 1 1 1.67-1.18l3.565 5.04c.25.354.251.821.004 1.174l-3.566 5.104a1.024 1.024 0 0 1-.84.437zM12.5 21.032c-.43 0-.82-.272-.965-.684l-1.8-5.15a1.02 1.02 0 0 1 .63-1.301 1.018 1.018 0 0 1 1.301.627l1.526 4.372 4.741-.627a1.021 1.021 0 0 1 1.146.88 1.027 1.027 0 0 1-.878 1.15l-5.566.729c-.045.002-.09.004-.135.004zm20.395 5.558a1.024 1.024 0 0 1-.915-1.486l2.253-4.438a1.04 1.04 0 0 1 .969-.553l5.56.302c.56.035.993.512.962 1.074-.03.561-.502.992-1.076.963l-4.893-.269-1.949 3.842c-.182.36-.541.566-.911.566z" fill="#343434"/></svg>