<svg width="70" height="42" fill="none" xmlns="http://www.w3.org/2000/svg"><path d="M39.273 20.49c2.14-1.028 10.434-1.157 12.962-1.157 3.176 0 6.351.129 9.203.321 2.009.193 3.046 1.092 3.305 1.35l.065.063 3.24 3.597V0H22.942v5.524h-.454v22.673l10.37-2.633c1.49-1.35 4.86-4.304 6.416-5.075zm-17.368 6.616V5.524H9.138L1.167 15.673v6.423L0 23.316v3.79h6.286c-.064.192-.064.385-.13.642H.908l.065 2.248h5.314c.648 2.505 2.982 4.304 5.639 4.304 2.722 0 4.99-1.799 5.638-4.304h2.851l.519-1.477.842-.193v-.578h-4.019c0-.193-.065-.385-.13-.642h4.279zm-9.916 4.175c-1.555 0-2.786-1.22-2.786-2.762s1.231-2.762 2.786-2.762c1.556 0 2.787 1.22 2.787 2.762 0 1.541-1.231 2.762-2.787 2.762zM4.861 15.287l5.314-7.386h9.267v7.386H4.861z" fill="#343434"/><path d="M69.603 37.51v-5.138l-1.167-3.661-5.573-6.23s-.583-.579-1.944-.707c-8.814-.707-19.378-.193-20.998.578-1.556.77-6.351 5.138-6.351 5.138l-11.277 2.827-1.037 2.89-.972.835.648 3.532h.778v1.157h4.018c.648 1.734 2.333 2.89 4.277 2.89 2.398 0 4.342-1.798 4.537-4.11h23.072c.194 2.312 2.138 4.11 4.536 4.11 1.944 0 3.63-1.22 4.277-2.89h2.398v-1.157h.713c.065 0 .065 0 .065-.064zM30.07 38.86c-.907 0-1.685-.772-1.685-1.67 0-.9.778-1.67 1.685-1.67s1.685.77 1.685 1.67c0 .963-.777 1.67-1.685 1.67zm19.507-11.113H38.43l3.176-3.918s5.12-.45 7.971-.45v4.368zm2.852 0V23.38c4.472-.129 7.777.32 7.777.32l3.37 4.047H52.429zm9.786 11.112c-.908 0-1.685-.77-1.685-1.67 0-.9.777-1.67 1.685-1.67.907 0 1.685.77 1.685 1.67 0 .964-.778 1.67-1.685 1.67z" fill="#343434"/></svg>