<svg width="165" height="119" fill="none" xmlns="http://www.w3.org/2000/svg"><path d="M133.343 95.414c-9.307.034-19.082-3.129-24.076-6.438-7.405 2.743-14.648 9.86-28.548 16.715-10.906 5.377-25.105 9.764-47.728 8.143-11.137-.794-23.47-4.554-32.008-7.026L0 108.12c13.07 5.553 30.059 9.391 48.763 10.415 50.953 2.785 78.872-7.108 102.41-25.102-4.709 1.072-10.687 1.957-17.83 1.981z" fill="#FBBA00"/><path d="M55.764 35.166c-2.274-1.354-4.338-1.91-7.273-2.558-3.369-.742-5.978-.678-8.819-.684-6.02.092-11.163 1.733-15.494 4.656-4.331 2.925-7.01 6.708-8.03 11.351-.554 3.397.026 6.155 1.728 8.273 1.705 2.117 3.807 3.916 6.31 5.396 2.497 1.479 4.661 2.958 6.49 4.442 1.83 1.483 2.592 3.283 2.29 5.41-.376 1.76-1.416 3.156-3.113 4.194-1.698 1.034-3.826 1.569-6.384 1.59-2.512-.034-5.175-.544-7.987-1.543-2.812-.998-4.5-1.74-6.626-3.315L4.41 81.01c2.268 1.557 4.922 2.777 7.96 3.656 3.04.884 6.653 1.335 10.843 1.349 4.36-.04 8.141-.807 11.354-2.294 3.208-1.484 5.786-3.443 7.73-5.867 1.942-2.43 3.194-5.078 3.758-7.948.596-3.63.052-6.56-1.633-8.787-1.682-2.233-3.777-4.08-6.276-5.546-2.5-1.467-4.682-2.866-6.54-4.2-1.857-1.335-2.665-2.922-2.418-4.76.402-1.757 1.476-3.155 3.22-4.19 1.744-1.038 3.743-1.7 6.067-1.721 2.3.037 4.36.223 7.302.907 2.68.621 2.787.645 4.666 1.655l5.322-8.098zm104.853-3.036a77.828 77.828 0 0 0-3.432-.074c-9.648.126-17.682 1.755-24.108 4.887-6.428 3.13-11.377 6.999-14.856 11.601-3.475 4.606-5.61 9.183-6.407 13.73-.769 3.91-.473 7.665.883 11.262 1.356 3.597 4.107 6.56 8.256 8.88 4.152 2.324 10.03 3.629 17.642 3.602 10.578-.037 16.896-3.203 18.045-3.488L165 57.653h-21.876l-2.759 8.32h10.131l-3.031 9.156c-1.649.377-3.215.74-4.473.916-1.263.18-2.601.275-4.056.267-5.059.008-9-1.183-11.836-3.567-2.834-2.387-3.856-6.003-3.073-10.856.789-4.034 2.631-7.556 5.523-10.563 2.886-3.008 6.556-5.346 11-7.018 4.443-1.672 9.389-2.518 14.836-2.545.559-.003 1.122.003 1.671.018l3.56-9.65zm-63.039.997c3.954 1.032 6.924 2.883 9.107 6.55 1.277 2.319 1.441 5.85.803 9.344-.929 4.361-3.06 8.916-5.632 11.418-2.573 2.503-5.557 4.272-8.958 5.31-3.392 1.036-6.79 1.541-10.186 1.508h-11.56l-6.398 18.064H52.392L64.93 49.447l12.385.009-3.118 9.038h6.955c4.075-.06 7.194-.883 9.35-2.468 2.158-1.586 3.675-4.274 4.113-6.65.46-2.249.264-4.731-1.797-6-3.537-2.178-13.471-2.038-21.874.59l-2.771-9.659c11.512-2.919 23.37-2.76 29.405-1.18z" fill="#9D9D9C"/><path d="M114.829.466C62.741-2.383 34.721 8.01 10.852 26.776l.25.04c15.596-5.508 28.977-7.002 42.258-5.007 4.186.627 7.447 1.573 10.639 2.843 4.93-3.26 10.768-7.344 18.874-11.34 10.906-5.378 25.106-9.768 47.728-8.145 11.134.797 23.47 4.552 32.009 7.027l.981-1.311c-13.07-5.555-30.057-9.395-48.762-10.417z" fill="#000"/></svg>