<svg width="71" height="56" fill="none" xmlns="http://www.w3.org/2000/svg"><path d="M64.233 13.66c.99-.25 1.653-.744 1.988-1.489l3.891-8.94c.278-.638.34-1.881-.716-2.395-1.054-.517-2.24.086-2.628.977l-3.239 7.04-9.622 1.655L42.003.478a2.03 2.03 0 0 0-2.856.238 2.014 2.014 0 0 0 .238 2.846l11.259 9.486-4.501 9.68c-.43.942-.598 1.89-.503 2.853.073.74.274 1.389.588 1.962.015.035 3.237 6.64 3.237 6.64l-8.033-.026h-.01a2.788 2.788 0 0 0-2.791 2.774 2.786 2.786 0 0 0 2.784 2.79l12.518.04h.008a2.79 2.79 0 0 0 2.365-1.302 2.778 2.778 0 0 0 .146-2.699l-3.172-6.475 7.315-3.055 2.863 7.722c.44 1.078 1.971 1.928 3.279 1.46 1.447-.517 2.174-1.93 1.658-3.247l-3.948-11.048c-.3-.605-.328-.955-1.37-1.414-.818-.362-2.218.155-2.292.195l-5.292 1.909 3.198-6.817 5.542-1.33z" fill="#000"/><path d="M59.552 3.986a3.99 3.99 0 0 1-2.413 5.11 4.013 4.013 0 0 1-5.126-2.405 3.989 3.989 0 0 1 2.414-5.11 4.009 4.009 0 0 1 5.125 2.405zM1.95 27.45c-.266 0-.515-.046-.75-.14a1.969 1.969 0 0 1-1.06-1.058 1.984 1.984 0 0 1 .015-1.495c.39-.965 1.578-1.447 2.546-1.043.484.203.86.577 1.047 1.058a1.872 1.872 0 0 1 0 1.48 1.935 1.935 0 0 1-1.797 1.2zm3.406-5.557c-.468 0-.906-.156-1.265-.452a1.966 1.966 0 0 1-.687-1.322 1.964 1.964 0 0 1 .452-1.418c.656-.794 1.953-.903 2.75-.235.828.685.936 1.916.25 2.74a1.969 1.969 0 0 1-1.5.687zm35.288-2.164c-.482 0-.952-.172-1.312-.514a1.925 1.925 0 0 1-.125-2.74c.704-.763 1.984-.826 2.75-.124.796.716.859 1.961.14 2.74a1.988 1.988 0 0 1-1.453.638zm-30.414-2.18a1.93 1.93 0 0 1-1.625-.857 1.944 1.944 0 0 1-.296-1.464c.109-.514.405-.949.844-1.23.859-.591 2.124-.326 2.702.531.594.887.36 2.1-.547 2.693a1.95 1.95 0 0 1-1.078.327zm25.026-1.495c-.312 0-.61-.077-.875-.217a1.901 1.901 0 0 1-.984-1.122 1.944 1.944 0 0 1 .109-1.478c.468-.935 1.671-1.34 2.625-.873.452.234.812.624.967 1.12.173.5.14 1.028-.093 1.48a1.97 1.97 0 0 1-1.75 1.09zM16.104 14.7a1.925 1.925 0 0 1-1.843-1.338 1.881 1.881 0 0 1 .109-1.48 1.86 1.86 0 0 1 1.125-.964c.953-.343 2.14.233 2.468 1.23.343 1.027-.218 2.116-1.25 2.46a2.01 2.01 0 0 1-.61.092zm12.966-.764c-.125 0-.266-.014-.39-.03a1.951 1.951 0 0 1-1.531-2.305c.203-1.026 1.234-1.727 2.296-1.525a1.962 1.962 0 0 1 1.53 2.304 1.952 1.952 0 0 1-1.905 1.556zm-6.53-.451a1.96 1.96 0 0 1-1.952-1.837 1.924 1.924 0 0 1 1.781-2.038c.031-.017.046-.017.062-.017 1.14 0 2 .81 2.062 1.838a1.939 1.939 0 0 1-.5 1.4 1.94 1.94 0 0 1-1.343.654h-.11zm7.636 39.918V21.965H19.37v31.438H.622v2.336H48.53v-2.336H30.176z" fill="#000"/></svg>