<svg width="57" height="56" fill="none" xmlns="http://www.w3.org/2000/svg"><path d="M16.782 44.367l-3.212-5.812.04-.062a1.571 1.571 0 0 0-.256-1.957l3.422-5.58c1.365-2.226 1.298-3.935 1.298-3.935l-2.112 3.447-3.463 5.646a1.6 1.6 0 0 0-1.611.739c-.008.012-.023.025-.023.038v-.013l-6.77-.152C1.464 36.667 0 37.816 0 37.816l4.068.09 6.557.147c.057.227.24.441.24.626v17.32h2.281V40.916l2.407 4.017c1.264 2.287 3.09 2.97 3.09 2.97l-1.86-3.535zm36.073-7.264l-6.863-3.924a1.863 1.863 0 0 0-.962-1.848l-.004-7.805c-.002-3.09-1.414-4.942-1.414-4.942l.002 4.943.004 7.637a1.879 1.879 0 0 0-1.137.87 1.85 1.85 0 0 0-.203 1.363l-6.753 3.869c-2.698 1.545-3.471 3.603-3.471 3.603l4.142-2.391 6.608-3.807V56h2.282V34.37c0-.033.214-.067.249-.104l6.846 3.874C54.883 39.683 57 39.49 57 39.49l-4.145-2.388z" fill="#343434"/><path d="M42.03 13.038l-13.768 2.908a3.371 3.371 0 0 0-3.319-1.137L15.42 4.34C11.714.265 7.485 0 7.485 0l5.734 6.306 9.41 10.344a3.299 3.299 0 0 0 .611 3.69l-.024-.008-4.4 13.443c-1.708 5.218-.258 8.84-.258 8.84l2.59-8.075 2.264-7.076V56h3.993V20.544c0-.008.258-.015.268-.023.659-.59 1.148-1.38 1.216-2.193l13.603-2.86c5.414-1.144 7.885-4.198 7.885-4.198l-8.347 1.768z" fill="#343434"/></svg>