<svg width="43" height="51" fill="none" xmlns="http://www.w3.org/2000/svg"><path d="M35.517 34.374c-.532 0-.988.454-.988.983v3.475c-.152.075-.304.075-.457.151l-.684.227c-.38.15-.608.226-.989.226-1.825.076-3.194-.226-4.791-1.057-.152-.076-.38-.227-.609-.302-.836-.454-1.749-.983-2.738-1.134-.912-.15-1.825-.075-2.662-.075-.38 0-.684 0-.988.075-.837 0-2.358.302-4.335.68-1.978.378-4.183.756-6.237.982-3.879.454-6.845.076-8.138-.453v-2.72c0-.529-.456-.982-.988-.982-.533 0-.913.302-.913.831v10.2c0 2.946 2.434 5.288 5.324 5.288h25.858c2.966 0 5.324-2.418 5.324-5.289V35.281c0-.529-.456-.907-.989-.907z" fill="#343434"/><path d="M10.648 35.81c2.662 0 4.791-2.116 4.791-4.76 0-2.342-3.422-5.742-4.107-6.422l-.684-.604-.685.68c-.684.68-4.107 4.08-4.107 6.422 0 2.568 2.13 4.684 4.792 4.684zM33.921.452L6.693 11.03c-1.293.68-.836 3.476.076 5.893.99 2.493 2.662 4.911 4.031 4.382.152-.075.228-.151.305-.226v.151l26.77-10.35c3.271-1.285 4.944-4.61 3.88-7.405C40.69.528 37.115-.756 33.92.452zM10.496 20.398c-.304.15-1.673-.983-2.814-3.854-1.065-2.795-.913-4.533-.532-4.684.304-.15 1.673.982 2.814 3.853 1.14 2.796.912 4.533.532 4.685zM37.572 9.896l-25.859 9.973c.152-1.21-.228-2.947-.837-4.609-.608-1.662-1.52-3.173-2.51-3.928l25.86-9.973c2.737-1.058 5.703 0 6.616 2.342.989 2.342-.532 5.137-3.27 6.195z" fill="#343434"/><path d="M34.073.906L20.231 6.27c.837.453-.456 4.004-2.89 7.857-1.749 2.87-3.65 5.137-4.791 5.893l25.174-9.746c2.966-1.133 4.563-4.23 3.574-6.8C40.31.981 37.04-.228 34.073.906z" fill="#343434"/></svg>