<svg width="51" height="49" fill="none" xmlns="http://www.w3.org/2000/svg"><path d="M28.398 2.304C28.924 1.41 29.851.6 30.906.04A4.495 4.495 0 0 0 30.3 0H20.013c-1.974 0-4.397 1.376-5.384 3.061l-5.366 9.155 9.994 5.683 9.141-15.595zm1.333.757l-3.685 6.285 4.326 7.384-2.723 1.549 10.561.46 4.877-9.243-2.723 1.548-4.68-7.982v-.003c-.52-.886-1.437-1.687-2.476-2.246-1.323.233-2.865 1.2-3.477 2.248zM3.718 33.36c-1.049-.002-2.223-.39-3.242-1.008.077.188.168.367.266.536l5.143 8.777c.987 1.682 3.41 3.062 5.383 3.062L22 44.73V33.36H3.718zm7.366-1.516l4.328-7.382 2.722 1.549-4.876-9.241-10.563.461 2.722 1.55L.74 26.764H.738C.218 27.65-.027 28.836.002 30c.866 1.012 2.487 1.843 3.715 1.842l7.367.002zm39.176-3.908l-5.365-9.156-9.993 5.685 9.14 15.597c.522.895.77 2.092.736 3.271a4.54 4.54 0 0 0 .338-.496l5.143-8.777c.987-1.685.989-4.44.001-6.124zm-11.233 6.599l-8.654-.002.001-3.097-5.685 8.782L30.376 49v-3.098l9.356-.001.003.001c1.04 0 2.202-.383 3.212-.99.456-1.246.377-3.044-.238-4.091l-3.682-6.286z" fill="#343434"/></svg>