<svg width="51" height="49" viewBox="0 0 51 49" fill="none" xmlns="http://www.w3.org/2000/svg">
<path d="M28.3983 2.30393C28.9235 1.40962 29.851 0.600843 30.9056 0.0403341C30.7009 0.0125173 30.4983 0 30.3006 0H20.0132C18.0389 0 15.6163 1.37624 14.6295 3.06124L9.2627 12.2157L19.2572 17.8987L28.3983 2.30393Z" fill="#343434"/>
<path d="M29.7313 3.06108L26.0459 9.34628L30.3715 16.7303L27.6489 18.279L38.2103 18.7386L43.0865 9.4958L40.3639 11.0445L35.6846 3.06177V3.05899C35.1644 2.17302 34.2468 1.3719 33.2077 0.813477C31.8849 1.04575 30.3433 2.01308 29.7313 3.06108Z" fill="#343434"/>
<path d="M3.71838 33.3592C2.66945 33.3578 1.49487 32.9705 0.475586 32.3516C0.553232 32.54 0.643584 32.7194 0.741701 32.8877L5.88472 41.6646C6.87224 43.3475 9.2941 44.7273 11.2684 44.7273L21.9992 44.7293L21.9985 33.3592H3.71838Z" fill="#343434"/>
<path d="M11.0838 31.8439L15.4116 24.4621L18.1341 26.0108L13.2579 16.77L2.6945 17.2311L5.41707 18.7805L0.739934 26.7639H0.737816C0.218291 27.6513 -0.0266474 28.8356 0.00229354 30.0004C0.868404 31.0122 2.48909 31.8433 3.71661 31.8419L11.0838 31.8439Z" fill="#343434"/>
<path d="M50.2601 27.9357L44.8954 18.7798L34.9023 24.4648L44.0413 40.0624C44.5644 40.9574 44.8114 42.1542 44.7776 43.333C44.9039 43.1716 45.0168 43.0054 45.1157 42.8372L50.2594 34.0603C51.2462 32.3746 51.2476 29.62 50.2601 27.9357Z" fill="#343434"/>
<path d="M39.0269 34.5346L30.3729 34.5332L30.3743 31.4365L24.6885 40.2176L30.3757 49.0001V45.902L39.7321 45.9006L39.7349 45.902C40.7747 45.902 41.9373 45.5188 42.9474 44.9117C43.4034 43.6662 43.3243 41.8678 42.7095 40.8205L39.0269 34.5346Z" fill="#343434"/>
</svg>
