<svg width="80" height="32" fill="none" xmlns="http://www.w3.org/2000/svg"><path fill-rule="evenodd" clip-rule="evenodd" d="M57.754 18.874v-3.175h6.21v3.176l-6.21-.001zm-8.27 0v-3.175h6.21v3.176l-6.21-.001zm17.572 7.396c-7.542-2.832-11.42-4.288-21.88-.622-7.58 2.658-10.362 2.658-17.942 0-10.464-3.664-14.336-2.212-21.88.62-1.184.444-2.47.928-4.004 1.464l1.463 4.096c1.437-.5 2.819-1.023 4.088-1.498 6.553-2.46 9.917-3.722 18.872-.585 8.49 2.977 12.206 3.037 20.865 0 8.95-3.137 12.319-1.872 18.872.586 1.27.476 2.652.996 4.088 1.499l1.463-4.096c-1.536-.538-2.821-1.02-4.005-1.464zM80 9.747H22.909V5.138h-4.845V0h-4.403v5.138H8.814v4.609H0l4.722 14.477a90.277 90.277 0 0 1 4.137-1.453c6.61-2.104 10.799-2.041 19.096.87 7.101 2.49 9.399 2.49 16.5 0 9.596-3.365 13.788-2.92 22.876.452L80 9.747z" fill="#343434"/></svg>