<svg width="41" height="41" fill="none" xmlns="http://www.w3.org/2000/svg"><path d="M40.403 9.882L31.117.595a2.042 2.042 0 0 0-2.882 0 2.026 2.026 0 0 0-.597 1.442c0 .545.212 1.056.597 1.441l.67.67-27.261 27.26a5.625 5.625 0 0 0 0 7.948A5.601 5.601 0 0 0 5.617 41a5.6 5.6 0 0 0 3.974-1.644l27.26-27.262.67.67c.398.396.92.595 1.441.595A2.034 2.034 0 0 0 41 11.322c0-.545-.212-1.055-.597-1.44zM16.046 21.576a.422.422 0 0 1-.598.598l-1.091-1.091.597-.597 1.092 1.09zm-2.532 2.533a.422.422 0 0 1-.598.598l-1.092-1.092.597-.597 1.093 1.091zm-2.533 2.533a.422.422 0 0 1-.598.597l-1.091-1.091.597-.597 1.092 1.09zM8.45 29.174a.422.422 0 0 1-.598.598L6.759 28.68l.597-.596 1.093 1.09zm19.19-10.253H16.52l2.903-2.904 1.091 1.092a.424.424 0 0 0 .598 0 .422.422 0 0 0 0-.597L20.02 15.42l1.935-1.935 1.092 1.091a.42.42 0 0 0 .597 0 .422.422 0 0 0 0-.597l-1.092-1.091 1.936-1.936 1.091 1.091a.42.42 0 0 0 .597 0 .422.422 0 0 0 0-.596l-1.091-1.092L27.02 8.42l1.092 1.092a.42.42 0 0 0 .597 0 .422.422 0 0 0 0-.597l-1.092-1.092 2.481-2.48 5.56 5.56-8.02 8.019zm11.57-7.352a.35.35 0 0 1-.494 0L29.43 2.283a.349.349 0 1 1 .495-.493l9.285 9.286a.349.349 0 0 1 0 .493z" fill="#343434"/></svg>