<svg width="109" height="33" viewBox="0 0 109 33" fill="none" xmlns="http://www.w3.org/2000/svg">
<path d="M15.8809 10.6307L16.0603 15.4342C16.0603 15.4342 16.3743 15.2969 17.3163 15.0682C18.034 14.7937 18.034 14.7937 18.5274 14.7022C18.5274 14.7022 18.6171 12.4148 18.662 12.2776C18.7069 12.1403 19.1106 11.9574 20.0077 11.9574C20.9497 11.9574 21.3086 12.1403 21.3086 12.3233C21.3086 12.5063 21.3983 14.1533 21.3983 14.1533C21.3983 14.1533 23.5066 13.833 25.6148 13.6958C27.768 13.5585 30.1903 13.6958 30.1903 13.6958C30.1903 13.6958 30.1005 12.9181 29.7417 11.8201C29.338 10.5849 29.024 9.94445 29.024 9.94445C29.024 9.94445 27.0503 9.44123 22.2954 9.71572C18.4826 9.89871 15.8809 10.6307 15.8809 10.6307Z" fill="white"/>
<path d="M25.1669 4.59162C25.1669 4.59162 24.6286 3.95115 22.3857 2.71596C19.784 1.29777 17.4515 0.977539 15.5226 0.977539C13.7732 0.977539 11.62 1.20628 8.70433 2.44147C5.56434 3.8139 2.7832 7.42798 2.7832 7.42798C2.7832 7.42798 7.13434 5.27783 13.6386 4.36288C19.9186 3.53942 25.1669 4.59162 25.1669 4.59162Z" fill="white"/>
<path d="M27.4546 7.19944C26.692 6.14724 25.9294 5.36953 25.9294 5.36953C25.9294 5.36953 20.3672 4.04284 12.3826 5.64401C6.37178 6.83346 1.57208 9.53258 1.57208 9.53258C1.57208 9.53258 1.12351 10.4475 0.630081 12.2317C0.226368 13.7414 0.0917969 14.9766 0.0917969 14.9766C0.0917969 14.9766 1.79636 14.0159 5.16064 12.6434C10.5883 10.4018 12.7863 9.94431 12.7863 9.94431C12.7863 9.94431 12.9209 7.61117 12.9658 7.47392C13.0106 7.29093 13.7283 7.15369 14.4012 7.15369C15.074 7.15369 15.8815 7.29093 15.8815 7.42818C15.8815 7.56542 15.9263 9.34958 15.9263 9.34958C15.9263 9.34958 19.6495 8.75486 22.5652 8.75486C26.692 8.70912 28.6657 9.16659 28.6657 9.16659C28.6657 9.16659 28.2172 8.29739 27.4546 7.19944Z" fill="white"/>
<path d="M0.00179437 17.0808C0.00179437 17.0808 -0.0430628 18.4075 0.315794 20.0086C0.629793 21.4268 1.07836 22.5248 1.07836 22.5248C1.07836 22.5248 3.90436 20.7864 6.50606 19.4597C9.87034 17.7212 12.3823 16.6233 12.3823 16.6233L12.6515 11.3623C12.6515 11.3623 10.0498 12.0943 5.69864 14.1529C1.43722 16.1201 0.00179437 17.0808 0.00179437 17.0808Z" fill="white"/>
<path d="M16.1055 16.8518L16.2849 21.3808C16.2849 21.3808 16.7783 21.1521 17.2718 20.9691C17.7652 20.7403 18.2138 20.5574 18.2138 20.5574L18.438 16.0283C18.438 16.0283 17.9895 16.1656 17.182 16.44C16.6886 16.623 16.5092 16.6688 16.1055 16.8518Z" fill="white"/>
<path d="M21.4434 15.3423C21.4434 15.3423 23.3274 14.8391 25.4356 14.6561C28.5756 14.3816 30.3251 14.5646 30.3251 14.5646C30.3251 14.5646 30.5493 15.6168 30.5493 16.669C30.5493 17.5382 30.4596 18.1787 30.4596 18.1787C30.4596 18.1787 29.2933 18.2245 28.1271 18.3617C27.1851 18.4532 25.9739 18.6362 25.9739 18.6362C25.9739 18.6362 25.8842 16.9893 25.8842 16.8063C25.8842 16.669 25.4805 16.5318 24.7179 16.5318C24.0451 16.5318 23.5965 16.669 23.5965 16.7605C23.5965 16.8978 23.5965 16.669 23.5068 18.9564C23.5068 18.9564 23.0582 19.0937 22.6545 19.1852C22.2508 19.2767 21.6676 19.4597 21.6676 19.4597L21.4434 15.3423Z" fill="white"/>
<path d="M12.2917 18.3613L12.0225 23.4851C10.8114 24.2628 10.7665 24.3085 8.88253 25.5437C6.95368 26.8247 4.97997 28.4258 4.97997 28.4258C4.97997 28.4258 4.44168 28.0141 3.2754 26.5502C2.42312 25.498 1.92969 24.4915 1.92969 24.4915C1.92969 24.4915 4.35197 22.7074 7.40225 20.9232C10.4077 19.2305 12.2917 18.3613 12.2917 18.3613Z" fill="white"/>
<path d="M11.9336 25.6357L11.7093 31.3085L10.9019 32.0404C10.9019 32.0404 9.69077 31.583 8.52449 31.034C7.35821 30.4393 6.55078 29.8445 6.55078 29.8445C6.55078 29.8445 7.89649 28.7008 8.83849 27.9689C10.1393 26.9624 11.9336 25.6357 11.9336 25.6357Z" fill="white"/>
<path d="M16.3301 23.0741L16.5095 28.1521L17.9001 27.2372L18.1244 22.1592C18.1244 22.1592 17.9449 22.2049 17.1375 22.6167C16.5992 22.9369 16.3301 23.0741 16.3301 23.0741Z" fill="white"/>
<path d="M25.9297 19.7339L26.0194 23.2565C26.0194 23.2565 27.4548 22.616 28.0828 22.3415C28.8005 22.0671 29.5182 21.7468 29.5182 21.7468C29.5182 21.7468 29.7425 21.1521 29.9668 20.5574C30.2808 19.5509 30.3257 19.002 30.3257 19.002C30.3257 19.002 29.4734 19.0477 28.0828 19.2764C27.0511 19.4594 25.9297 19.7339 25.9297 19.7339Z" fill="white"/>
<path d="M21.8024 25.2696L23.1033 24.5376L23.3724 20.2373C23.3724 20.2373 23.1481 20.2831 22.4753 20.5118C21.7576 20.7863 21.5781 20.832 21.5781 20.832L21.8024 25.2696Z" fill="white"/>
<path d="M60.207 12.982L62.9991 13.8209C62.8218 14.6156 62.5116 15.2337 62.1127 15.7635C61.7138 16.2933 61.2263 16.6907 60.6059 16.9556C60.0297 17.2205 59.2763 17.3529 58.3456 17.3529C57.2376 17.3529 56.3069 17.1763 55.5978 16.8673C54.8887 16.5582 54.2683 15.9843 53.7808 15.1454C53.2489 14.3507 53.0273 13.2911 53.0273 12.0107C53.0273 10.333 53.4705 9.00851 54.3569 8.1255C55.2433 7.19834 56.5285 6.75684 58.1683 6.75684C59.4536 6.75684 60.4729 7.02174 61.2263 7.55154C61.9798 8.08135 62.5116 8.87606 62.8661 9.93566L60.074 10.5538C59.9854 10.2447 59.8524 10.024 59.7638 9.84736C59.5865 9.62661 59.3649 9.40586 59.099 9.27341C58.8331 9.14096 58.5672 9.09681 58.257 9.09681C57.5479 9.09681 56.9717 9.40586 56.6172 9.97981C56.3069 10.4213 56.174 11.0836 56.174 12.0107C56.174 13.1586 56.3513 13.9092 56.7058 14.3507C57.0604 14.7922 57.5479 14.9688 58.1683 14.9688C58.7888 14.9688 59.232 14.7922 59.5422 14.439C59.8524 14.1299 60.074 13.6443 60.207 12.982Z" fill="white"/>
<path d="M67.8296 11.0828H69.1592C69.2921 11.0828 69.6024 11.0386 70.0013 10.9503C70.2228 10.9062 70.4001 10.8179 70.5331 10.6412C70.666 10.4646 70.7104 10.288 70.7104 10.0673C70.7104 9.75824 70.6217 9.49334 70.4001 9.31674C70.1785 9.14014 69.7797 9.05184 69.2035 9.05184H67.8296V11.0828V11.0828ZM64.6387 17.1755V6.93262H69.9126C70.8876 6.93262 71.6411 7.02092 72.1729 7.19752C72.7047 7.37412 73.1036 7.68317 73.4138 8.12468C73.724 8.56618 73.9013 9.14014 73.9013 9.80239C73.9013 10.3763 73.7684 10.862 73.5468 11.2594C73.3252 11.6567 72.9706 12.0099 72.5274 12.2748C72.2615 12.4514 71.907 12.5839 71.4195 12.6722C71.8183 12.8046 72.0842 12.9371 72.2615 13.0695C72.3945 13.1578 72.5274 13.3344 72.749 13.5993C72.9706 13.8642 73.1036 14.085 73.1922 14.2174L74.7434 17.1755H71.1535L69.4694 14.0408C69.2478 13.6435 69.0706 13.3786 68.8933 13.2461C68.6717 13.0695 68.4058 13.0254 68.0955 13.0254H67.8296V17.1755H64.6387Z" fill="white"/>
<path d="M75.8066 6.93262H84.2715V9.14014H78.9533V10.7737H83.8727V12.8488H78.9533V14.8797H84.4488V17.1755H75.8066V6.93262Z" fill="white"/>
<path d="M88.9709 12.0981C88.9709 13.1135 89.1481 13.8641 89.547 14.3056C89.9459 14.7471 90.4334 14.9678 91.0982 14.9678C91.7629 14.9678 92.2948 14.7471 92.6936 14.3056C93.0482 13.8641 93.2698 13.0694 93.2698 11.9215C93.2698 10.9501 93.0925 10.2437 92.6936 9.80224C92.2948 9.36073 91.7629 9.13998 91.0982 9.13998C90.4777 9.13998 89.9459 9.36073 89.547 9.80224C89.1481 10.2879 88.9709 11.0384 88.9709 12.0981ZM85.8242 12.0539C85.8242 10.3762 86.2674 9.09583 87.2424 8.16867C88.1731 7.24151 89.4584 6.75586 91.1425 6.75586C92.8266 6.75586 94.1562 7.19736 95.0869 8.12452C96.0176 9.05168 96.4607 10.332 96.4607 11.9656C96.4607 13.1577 96.2391 14.129 95.8403 14.9237C95.4414 15.6742 94.8653 16.2923 94.1118 16.6897C93.3584 17.1312 92.3834 17.3078 91.2754 17.3078C90.1232 17.3078 89.1481 17.1312 88.3947 16.778C87.6413 16.4248 87.0208 15.8067 86.5333 15.012C86.0458 14.2614 85.8242 13.2901 85.8242 12.0539Z" fill="white"/>
<path d="M98.2324 6.93262H101.157L105.013 12.628V6.93262H108.027V17.1755H105.013L101.202 11.5684V17.1755H98.2324V6.93262Z" fill="white"/>
<path d="M75.6748 24.1064C75.4532 23.8857 75.3645 23.5766 75.3645 23.2234C75.3645 22.8702 75.4532 22.5612 75.6748 22.3404C75.8964 22.1197 76.118 21.9872 76.4282 21.9872C76.7384 21.9872 76.96 22.1197 77.1816 22.3404C77.4032 22.5612 77.4918 22.8702 77.4918 23.2234C77.4918 23.5766 77.4032 23.8857 77.1816 24.1064C76.96 24.3272 76.7384 24.4596 76.4282 24.4596C76.1623 24.4596 75.8964 24.3272 75.6748 24.1064ZM75.4089 26.7555V24.857C75.7634 25.2985 76.2509 25.5193 76.7827 25.5193C77.0486 25.5193 77.3146 25.4751 77.5362 25.3868C77.7578 25.2985 77.9793 25.1661 78.1566 24.9453C78.3339 24.7687 78.5112 24.5038 78.5998 24.2389C78.6884 23.9298 78.7771 23.6208 78.7771 23.2676C78.7771 22.9144 78.7328 22.6053 78.5998 22.2963C78.4669 21.9872 78.3339 21.7665 78.1566 21.5899C77.9793 21.4133 77.7578 21.2808 77.5362 21.1484C77.3146 21.0601 77.0486 21.0159 76.7827 21.0159C76.2066 21.0159 75.7634 21.2367 75.4089 21.7223V21.1042H74.1679V26.7555H75.4089ZM71.2429 25.3427C71.4202 25.2102 71.6417 25.0336 71.819 24.8129V25.431H73.06V21.0601H71.819V23.4883C71.819 23.7974 71.7304 24.0181 71.5974 24.1506C71.4645 24.283 71.2872 24.3713 71.0213 24.3713C70.7997 24.3713 70.5781 24.283 70.4451 24.1506C70.3122 24.0181 70.2679 23.7974 70.2679 23.4883V21.0601H69.0269V23.8857C69.0269 24.3713 69.1599 24.7687 69.4258 25.0778C69.6917 25.3868 70.0463 25.5193 70.5338 25.5193C70.7997 25.5193 71.0213 25.431 71.2429 25.3427ZM64.9496 24.1064C64.728 23.8857 64.6394 23.5766 64.6394 23.2676C64.6394 22.9144 64.728 22.6495 64.9496 22.4287C65.1712 22.208 65.4371 22.0755 65.7917 22.0755C66.1462 22.0755 66.4121 22.208 66.6337 22.4287C66.8553 22.6495 66.9439 22.9585 66.9439 23.2676C66.9439 23.6208 66.8553 23.8857 66.6337 24.1064C66.4121 24.3272 66.1462 24.4596 65.7917 24.4596C65.4371 24.4596 65.1712 24.3272 64.9496 24.1064ZM66.9883 25.2102C67.3428 24.9895 67.653 24.7245 67.8303 24.3713C68.0519 24.0181 68.1406 23.6208 68.1406 23.2234C68.1406 22.8261 68.0519 22.4287 67.8303 22.0755C67.6087 21.7223 67.3428 21.4574 66.9883 21.2367C66.6337 21.0159 66.2348 20.9276 65.7917 20.9276C65.4371 20.9276 65.1269 20.9718 64.861 21.1042C64.5507 21.2367 64.3291 21.3691 64.1075 21.5899C63.8859 21.8106 63.753 22.0314 63.62 22.2963C63.4871 22.5612 63.4428 22.8702 63.4428 23.1793C63.4428 23.5766 63.5314 23.974 63.753 24.3272C63.9746 24.6804 64.2405 24.9453 64.5951 25.1661C64.9496 25.3868 65.3485 25.4751 65.7917 25.4751C66.1905 25.5193 66.5894 25.431 66.9883 25.2102ZM61.537 25.431V23.7974C61.537 23.2676 61.67 22.9144 61.8916 22.6495C62.1132 22.3846 62.4677 22.2521 62.8666 22.2521H62.9553V20.9718C62.2905 20.9276 61.8473 21.2808 61.537 21.9431V21.0601H60.2961V25.431H61.537ZM59.1881 24.6362V22.1638H56.7063V23.2234H57.9915V24.0623C57.6813 24.283 57.2824 24.4155 56.7949 24.4155C56.3074 24.4155 55.8642 24.2389 55.554 23.8857C55.2438 23.5325 55.0665 23.091 55.0665 22.6053C55.0665 22.1197 55.2438 21.6782 55.554 21.3691C55.8642 21.0159 56.2631 20.8393 56.7063 20.8393C57.0165 20.8393 57.2824 20.8835 57.504 20.9718C57.7256 21.0601 57.9472 21.1925 58.2131 21.4133L59.0109 20.442C58.7006 20.1771 58.3461 20.0005 58.0359 19.868C57.6813 19.7356 57.2824 19.6914 56.7949 19.6914C56.3517 19.6914 55.9529 19.7797 55.5983 19.9122C55.2438 20.0888 54.8892 20.2654 54.6233 20.5303C54.3574 20.7952 54.1358 21.1042 54.0028 21.4574C53.8699 21.8106 53.7813 22.208 53.7813 22.6053C53.7813 23.0027 53.8699 23.4 54.0028 23.7974C54.1358 24.1506 54.3574 24.4596 54.6233 24.7246C54.8892 24.9895 55.1995 25.2102 55.5983 25.3427C55.9529 25.4751 56.3961 25.5634 56.8393 25.5634C57.6813 25.5193 58.479 25.2102 59.1881 24.6362Z" fill="white"/>
</svg>
