<svg width="78" height="54" fill="none" xmlns="http://www.w3.org/2000/svg"><path d="M70.778 22.882c.201-.888.315-1.896.315-3.043H50.14l10.127-6.858s2.268-2.547 2.014-2.93l-2.72 1.791c-.288-.44 2.713-1.812 2.713-1.812-.255-.382-3.474.714-3.474.714l-10.908 7.094c2.494-3.61 6.938-9.358 11.051-11.18l-.025-.025c-.444-.454-4.393.263-4.393.263l-8.04 7.937 4.1-10.2s-1.388-.754.51-3.363l-.028-.014c-.6-.243-3.95 1.97-3.95 1.97l-4.114 9.847V3.59S41.79.274 41.151.274h-.035c-.64 0-1.853 3.317-1.853 3.317v11.942H17.882s-5.758 0-5.758 8.074c0 1.895.624 3.17 1.46 4.03v.264l-2.034 2.044S-1.91 43.478.23 45.63l.044.036c2.137 2.15 15.59-11.377 15.59-11.377l2.437-2.45.245.017v17.823c0 .716.55 3.761 5.087 3.761-.075-.461-1.515-.148-1.515-3.364 0-.688 1.522-.717 1.522-2.093 0-.765-1.522-1.306-1.522-2.035 0-1.029 1.522-.837 1.522-2.065 0-1.327-1.522-1.274-1.522-2.07 0-1.56 1.522-.745 1.522-2.181 0-1.162-1.522-.7-1.522-1.956 0-.815 1.522-1.05 1.522-2.09 0-.901-1.522-1.165-1.522-2.046 0-1.119 1.522-1.039 1.522-2.085a.886.886 0 0 0-.065-.344l.385-.034c6.112 6.144 14.132 14.208 14.139 14.22 3.023 3.035 6.007-1.506 2.513-5.028-.567-.562-2.078.166-2.617-.375-.743-.755.514-1.74-.388-2.643-.98-.988-2.06.181-2.645-.41-1.142-1.148.574-1.668-.482-2.729-.847-.86-1.633.602-2.552-.318-.6-.602.342-1.902-.42-2.67-.657-.665-1.967.268-2.614-.382-.33-.332-.336-.704-.276-1.08l.229-.256h34.272s1.066 0 2.42-.467l.175-.064c.292 2.158 2.417 4.664 2.955 4.119.636-.636.09-1.267.09-1.267-.51-.502-1.26-2.024-.294-2.998.965-.968 2.645-1.73 4.408.046 2.426 2.45-.262 4.372-.262 4.372l.89 4.786 3.4-3.419c2.983-3-1.052-6.37-1.052-6.37l-5.102-5.131.03-.13z" fill="#000"/></svg>