<svg width="52" height="49" fill="none" xmlns="http://www.w3.org/2000/svg"><path d="M26.14 9.047c2.474 0 4.486-2.03 4.486-4.523C30.626 2.029 28.614 0 26.14 0c-2.473 0-4.486 2.03-4.486 4.524s2.013 4.523 4.486 4.523zm-7.103 13.876H33.18c.92 0 1.667-.753 1.667-1.681v-6.219a3.979 3.979 0 0 0-2.719-3.784l-.008-.002-2.372-.396a.397.397 0 0 0-.49.246l-2.693 7.448a.485.485 0 0 1-.913 0l-2.693-7.448a.397.397 0 0 0-.49-.246l-2.373.395a4.005 4.005 0 0 0-2.728 3.808v6.197c0 .93.747 1.682 1.668 1.682zM8.78 35.124c2.474 0 4.487-2.03 4.487-4.524s-2.013-4.523-4.486-4.523c-2.474 0-4.487 2.029-4.487 4.523 0 2.495 2.013 4.524 4.487 4.524zm5.98 2.192l-.007-.003-2.373-.396a.397.397 0 0 0-.49.246l-2.693 7.45a.485.485 0 0 1-.913 0l-2.693-7.45a.398.398 0 0 0-.49-.246l-2.373.396A4.005 4.005 0 0 0 0 41.12v6.198C0 48.247.747 49 1.668 49h14.144c.92 0 1.667-.753 1.667-1.682V41.1a3.979 3.979 0 0 0-2.719-3.784zm28.501-2.192c2.474 0 4.486-2.03 4.486-4.524s-2.012-4.523-4.486-4.523c-2.474 0-4.486 2.029-4.486 4.523 0 2.495 2.012 4.524 4.486 4.524zm6.019 2.192l-.007-.003-2.373-.396a.397.397 0 0 0-.49.246l-2.692 7.45a.485.485 0 0 1-.914 0l-2.692-7.45a.398.398 0 0 0-.49-.246l-2.373.396a4.005 4.005 0 0 0-2.729 3.807v6.198c0 .929.747 1.682 1.668 1.682h14.144c.921 0 1.668-.753 1.668-1.682V41.1a3.978 3.978 0 0 0-2.72-3.784zM27.62 24.197h-2.96v6.8l-6.97 7.028c.631.87.994 1.938.994 3.075v.145l7.456-7.518 7.168 7.228a5.248 5.248 0 0 1 1.123-3.09l-6.811-6.868v-6.8z" fill="#343434"/><path d="M27.212 10.818a.619.619 0 0 0-.46-.193h-1.286a.618.618 0 0 0-.46.193.605.605 0 0 0-.079.709l.688 1.045-.322 2.738.634 1.7a.193.193 0 0 0 .364 0l.633-1.7-.322-2.738.688-1.045a.605.605 0 0 0-.078-.71zM9.843 36.9a.619.619 0 0 0-.46-.194H8.097a.618.618 0 0 0-.46.193.605.605 0 0 0-.079.709l.688 1.045-.322 2.738.634 1.7a.193.193 0 0 0 .363 0l.634-1.7-.322-2.738.688-1.045a.605.605 0 0 0-.078-.709zm34.52 0a.619.619 0 0 0-.46-.194h-1.286a.618.618 0 0 0-.46.193.605.605 0 0 0-.078.709l.687 1.045-.322 2.738.634 1.7a.193.193 0 0 0 .364 0l.634-1.7-.322-2.738.687-1.045a.605.605 0 0 0-.078-.709z" fill="#343434"/></svg>