<svg width="55" height="51" fill="none" xmlns="http://www.w3.org/2000/svg"><path d="M32.808 23.16a.666.666 0 0 0 .748-.149l12.61-12.536a1.25 1.25 0 0 0-.093-1.861 23.762 23.762 0 0 0-12.279-5.12 1.263 1.263 0 0 0-1.41 1.25v17.785a.66.66 0 0 0 .424.63zm15.335-10.63L16.302 44.182a1.251 1.251 0 0 0 .117 1.882c4.154 3.184 9.221 4.92 14.54 4.934h.058C44.246 51 55 40.31 55 27.17a23.583 23.583 0 0 0-4.964-14.523 1.268 1.268 0 0 0-1.893-.117zM6.137 39.352l1.755-1.744-6.67-6.567a23.362 23.362 0 0 0 4.915 8.31zM1.354 15.68a23.31 23.31 0 0 0-1.329 8.95l10.51 10.35 5.169-5.138-14.35-14.163zM22.212 0a23.748 23.748 0 0 0-3.13.407l3.13 3.112V0zm.001 8.776L15 1.606a23.758 23.758 0 0 0-5.297 2.92l12.51 12.347V8.776zm-1.138 15.727a3.82 3.82 0 0 0 1.122-2.408L6.865 6.963A23.753 23.753 0 0 0 3 12.068l15.347 15.146 2.727-2.711z" fill="#343434"/></svg>