<svg width="486" height="373" viewBox="0 0 486 373" fill="none" xmlns="http://www.w3.org/2000/svg">
<path d="M252 91.8115L254.859 168C254.859 168 259.862 165.823 274.871 162.195C286.307 157.842 286.307 157.842 294.169 156.39C294.169 156.39 295.599 120.11 296.313 117.933C297.028 115.756 303.461 112.854 317.755 112.854C332.765 112.854 338.483 115.756 338.483 118.659C338.483 121.561 339.912 147.683 339.912 147.683C339.912 147.683 373.505 142.604 407.097 140.427C441.404 138.25 480 140.427 480 140.427C480 140.427 478.571 128.092 472.853 110.677C466.42 91.0859 461.417 80.9275 461.417 80.9275C461.417 80.9275 429.969 72.9458 354.207 77.2994C293.455 80.2019 252 91.8115 252 91.8115Z" fill="white" fill-opacity="0.05"/>
<path d="M436.757 37.0785C424.641 20.448 412.524 8.15581 412.524 8.15581C412.524 8.15581 324.148 -12.8132 197.284 12.4942C101.78 31.294 25.5196 73.955 25.5196 73.955C25.5196 73.955 18.3925 88.4163 10.5526 116.616C4.13815 140.477 2 160 2 160C2 160 29.0832 144.816 82.5369 123.124C168.776 87.6932 203.699 80.4626 203.699 80.4626C203.699 80.4626 205.837 43.5861 206.549 41.4169C207.262 38.5246 218.666 36.3554 229.356 36.3554C240.047 36.3554 252.876 38.5247 252.876 40.6939C252.876 42.8631 253.589 71.0627 253.589 71.0627C253.589 71.0627 312.744 61.6628 359.071 61.6628C424.64 60.9397 456 68.1704 456 68.1704C456 68.1704 448.873 54.4321 436.757 37.0785Z" fill="white" fill-opacity="0.05"/>
<path d="M0.028508 193.676C0.028508 193.676 -0.684158 214.713 5.01716 240.102C10.0058 262.59 17.1325 280 17.1325 280C17.1325 280 62.0303 252.434 103.365 231.398C156.815 203.832 196.724 186.422 196.724 186.422L201 103C201 103 159.665 114.607 90.5369 147.25C22.8338 178.443 0.028508 193.676 0.028508 193.676Z" fill="white" fill-opacity="0.05"/>
<path d="M255 189.231L258 262C258 262 266.25 258.325 274.5 255.385C282.75 251.709 290.25 248.769 290.25 248.769L294 176C294 176 286.5 178.205 273 182.615C264.75 185.556 261.75 186.291 255 189.231Z" fill="white" fill-opacity="0.05"/>
<path d="M342 165.522C342 165.522 371.793 157.397 405.133 154.442C454.788 150.01 482.453 152.965 482.453 152.965C482.453 152.965 486 169.954 486 186.943C486 200.977 484.581 211.318 484.581 211.318C484.581 211.318 466.138 212.057 447.695 214.272C432.798 215.75 413.645 218.704 413.645 218.704C413.645 218.704 412.227 192.113 412.227 189.158C412.227 186.943 405.842 184.727 393.783 184.727C383.143 184.727 376.049 186.943 376.049 188.42C376.049 190.636 376.049 186.943 374.631 223.875C374.631 223.875 367.537 226.091 361.153 227.568C354.768 229.045 345.547 232 345.547 232L342 165.522Z" fill="white" fill-opacity="0.05"/>
<path d="M195 214L190.714 294.945C171.429 307.232 170.714 307.955 140.714 327.468C110 347.705 78.5714 373 78.5714 373C78.5714 373 70 366.495 51.4286 343.368C37.8571 326.745 30 310.845 30 310.845C30 310.845 68.5714 282.659 117.143 254.473C165 227.732 195 214 195 214Z" fill="white" fill-opacity="0.05"/>
<path d="M261 287.504L263.8 368L285.5 353.496L289 273C289 273 286.2 273.725 273.6 280.252C265.2 285.328 261 287.504 261 287.504Z" fill="white" fill-opacity="0.05"/>
<path d="M413 234.527L414.429 290C414.429 290 437.286 279.914 447.286 275.591C458.714 271.269 470.143 266.226 470.143 266.226C470.143 266.226 473.714 256.86 477.286 247.495C482.286 231.645 483 223 483 223C483 223 469.429 223.72 447.286 227.323C430.857 230.204 413 234.527 413 234.527Z" fill="white" fill-opacity="0.05"/>
</svg>
